<svg width="81" height="81" viewBox="0 0 81 81" fill="none" xmlns="http://www.w3.org/2000/svg">
<g clip-path="url(#clip0_493_3648)">
<path d="M68.375 49.776C68.1982 50.7219 68.0725 51.6807 67.8372 52.6137C65.7564 60.8585 58.1269 66.3833 49.495 65.9082C48.8418 65.8723 48.1944 65.7475 47.5412 65.7058C47.208 65.6843 46.8603 65.7144 46.5329 65.7862C44.8656 66.1508 43.2085 66.5556 41.5382 66.9058C40.8602 67.0479 40.3122 66.6345 40.2216 66.0144C40.1324 65.413 40.5138 64.9393 41.1831 64.803C42.3945 64.5575 43.6045 64.3106 44.8144 64.058C45.0059 64.0178 45.19 63.9417 45.3668 63.8858C45.0716 62.8092 44.7341 61.7743 44.5076 60.7164C42.7321 52.4099 47.5997 43.7632 55.7172 40.8852C58.1824 40.0111 60.2882 38.7121 61.9424 36.7054C62.5123 36.0135 63.1932 36.0236 63.7997 36.6896C66.3803 39.5259 67.8811 42.8345 68.2771 46.6224C68.2932 46.7803 68.3429 46.9339 68.3779 47.0889V49.7745L68.375 49.776ZM60.8435 53.0888C61.0933 53.0113 61.295 52.9496 61.4952 52.8864C62.2551 52.6482 62.8469 52.8793 63.0661 53.5008C63.2809 54.1094 62.9433 54.6663 62.1893 54.9232C61.3637 55.2031 60.5249 55.4457 59.7109 55.7558C59.4318 55.862 59.1425 56.0744 58.9774 56.317C57.1128 59.0658 54.7864 61.3523 51.9748 63.1638C51.7089 63.3346 51.4414 63.5011 51.12 63.7035C55.6529 64.2819 61.9146 60.3432 64.4938 55.3582C67.45 49.6439 66.2853 43.0397 62.8571 38.9805C62.388 39.3982 61.9307 39.8302 61.4484 40.2321C59.9258 41.5024 58.1371 42.2689 56.2886 42.9665C49.7668 45.4239 45.7234 51.942 46.4087 58.8203C46.5548 60.283 46.8939 61.7054 47.5076 63.1064C48.0088 62.8695 48.4998 62.68 48.9455 62.4188C49.8983 61.8604 50.8145 61.2418 51.7746 60.6949C52.3898 60.3447 52.5082 59.9227 52.3606 59.2495C52.0873 58.0108 51.9076 56.7505 51.7352 55.4917C51.6314 54.7366 52.1546 54.2142 52.8764 54.2615C53.4507 54.2989 53.7971 54.6677 53.9183 55.384C54.0835 56.3615 54.2442 57.3404 54.4298 58.4686C55.0056 57.817 55.5097 57.2844 55.97 56.716C58.0275 54.1725 59.4406 51.3161 60.2312 48.1597C60.4197 47.4062 60.9808 47.0487 61.6238 47.221C62.2361 47.3846 62.5283 47.9573 62.3457 48.6865C62.2054 49.2406 62.0578 49.7961 61.8693 50.3358C61.5536 51.2401 61.2029 52.1343 60.8449 53.0917L60.8435 53.0888Z" fill="#546455"/>
<path d="M19.1103 36.7499C20.7835 37.2824 22.369 37.6527 23.8434 38.2786C30.9498 41.2972 35.2211 48.5171 34.4393 56.0802C34.3341 57.0935 34.1193 58.0954 34.0156 59.1088C33.8329 60.8844 34.131 62.6025 34.7564 64.2719C35.1978 65.4518 34.8953 65.9714 33.6429 66.2039C23.576 68.0642 14.0761 61.4528 12.5797 51.4999C11.8169 46.4272 13.1979 41.9043 16.3937 37.881C16.6582 37.548 16.819 37.1145 16.9534 36.704C17.4619 35.1595 17.9193 33.5978 18.4395 32.0576C18.6193 31.5251 19.1103 31.2753 19.5954 31.35C20.0996 31.4275 20.4474 31.7174 20.5175 32.2069C20.5555 32.471 20.4649 32.7681 20.3772 33.0323C19.9549 34.3026 19.5151 35.5657 19.1088 36.7513L19.1103 36.7499ZM20.9457 55.4414C20.8843 55.7228 20.839 55.9323 20.7922 56.1419C20.6315 56.8653 20.1259 57.2313 19.4698 57.1022C18.8297 56.9758 18.5068 56.4232 18.6529 55.6984C18.8268 54.8386 19.0241 53.9831 19.1644 53.119C19.2097 52.8448 19.179 52.5104 19.0562 52.2649C17.7586 49.6726 16.9052 46.9554 16.6144 44.0746C16.5413 43.3512 16.4989 42.6249 16.4376 41.8469C14.0381 45.8186 13.6114 52.1214 17.1448 57.4251C20.9881 63.1925 27.7232 65.0369 32.3774 64.1858C32.3599 64.0853 32.3394 63.9848 32.3234 63.8829C32.1422 62.6829 31.8178 61.4829 31.8192 60.283C31.8192 58.8447 32.0969 57.4065 32.2576 55.9682C33.0453 48.919 28.695 42.1225 21.8838 39.8058C20.9004 39.4714 19.8716 39.2704 18.8122 38.9948C18.7683 39.3896 18.7128 39.6364 18.7172 39.8833C18.7435 41.313 18.7946 42.7412 18.8151 44.1708C18.8224 44.6258 19.0065 44.8612 19.4537 45.0148C20.7411 45.4569 22.0154 45.9392 23.2867 46.4258C23.9662 46.6856 24.2453 47.2411 24.0363 47.8282C23.8244 48.421 23.2034 48.6664 22.499 48.4167C21.7976 48.1683 21.102 47.9014 20.4035 47.6444C20.1127 47.5382 19.819 47.4377 19.5268 47.3344C19.4888 47.3688 19.4508 47.4047 19.4128 47.4392C19.8526 48.5315 20.2457 49.6454 20.7426 50.7133C21.9204 53.2482 23.5702 55.4615 25.6218 57.3878C26.1596 57.8916 26.1961 58.5562 25.7534 59.004C25.296 59.4662 24.6559 59.4433 24.1079 58.9265C23.7528 58.5921 23.3977 58.2562 23.0733 57.893C22.369 57.105 21.6851 56.2998 20.9413 55.4429L20.9457 55.4414Z" fill="#546455"/>
<path d="M38.8743 20.3507C38.6054 20.1138 38.4169 19.9559 38.2386 19.788C37.7359 19.3158 37.6819 18.6627 38.1027 18.2119C38.5192 17.7655 39.1432 17.7354 39.6663 18.1703C40.3897 18.7717 41.0838 19.4062 41.8115 20.0033C41.9927 20.1526 42.2499 20.2832 42.4779 20.2961C46.1574 20.4885 49.6105 21.4545 52.8429 23.1884C52.8896 23.2128 52.9437 23.2229 53.1249 23.2817C52.9817 23.0434 52.8984 22.8855 52.7961 22.7406C48.8696 17.0923 41.5485 14.6737 34.9419 16.8426C34.7695 16.8986 34.5985 16.966 34.4232 17.0062C33.7992 17.1498 33.238 16.8555 33.0685 16.3086C32.8946 15.7488 33.1621 15.1431 33.7743 14.9823C35.1597 14.6206 36.5494 14.1857 37.9639 14.0364C45.3186 13.2599 52.1312 16.8196 55.6193 23.1755C55.8429 23.5846 56.0884 23.9937 56.2316 24.4315C56.5575 25.4319 57.18 26.1797 57.9647 26.8888C58.9248 27.7572 59.7534 28.7677 60.6038 29.7481C61.1211 30.3438 61.0671 31.0026 60.5483 31.406C60.0339 31.8064 59.4114 31.6672 58.8883 31.0715C57.9852 30.0452 57.066 29.0318 56.1133 27.9668C55.8955 28.2151 55.7552 28.3759 55.6164 28.5366C49.2071 35.9561 38.0121 36.8963 30.4397 30.6237C28.54 29.0505 26.4269 27.9955 23.9646 27.6123C22.9417 27.4529 22.61 26.8831 22.93 25.9242C23.4839 24.2635 24.2759 22.7205 25.3061 21.2966C25.7781 20.642 26.3772 20.4842 26.9355 20.8574C27.4805 21.2205 27.5302 21.8506 27.1167 22.5152C26.4941 23.5185 25.9008 24.5391 25.2476 25.6286C25.7226 25.7664 26.0631 25.8597 26.4006 25.963C28.4318 26.5817 30.2073 27.628 31.8308 28.973C38.4958 34.4949 48.3187 33.6696 53.9637 27.13C54.0791 26.9965 54.1829 26.8515 54.3641 26.6218C53.4186 26.0549 52.5243 25.4836 51.5949 24.9726C50.9622 24.6238 50.2768 24.3697 49.6251 24.0525C49.3401 23.9133 49.1399 23.9578 48.8974 24.1573C47.7955 25.0673 46.6776 25.9587 45.5612 26.8515C45.1506 27.1788 44.6947 27.2276 44.2416 26.952C43.8266 26.6994 43.6454 26.2917 43.7813 25.841C43.8617 25.5711 44.0692 25.3042 44.2913 25.1147C45.0585 24.4587 45.8578 23.8358 46.7639 23.1052C46.08 22.9602 45.5159 22.8166 44.9431 22.7233C41.623 22.1808 38.338 22.3344 35.0939 23.2315C34.9361 23.2745 34.7797 23.3233 34.619 23.352C33.9702 23.4683 33.4368 23.1755 33.2819 22.6229C33.1168 22.0372 33.4192 21.4545 34.0739 21.3009C35.4344 20.9837 36.8109 20.7239 38.1802 20.4454C38.3716 20.4066 38.5674 20.3923 38.8743 20.3507Z" fill="#546455"/>
<path d="M29.7967 19.3674C29.199 19.376 28.6802 18.8722 28.6861 18.2866C28.6919 17.721 29.1858 17.2359 29.7631 17.2273C30.3505 17.2172 30.84 17.6765 30.8605 18.255C30.8824 18.8622 30.406 19.3588 29.7952 19.3674H29.7967Z" fill="#546455"/>
</g>
<defs>
<clipPath id="clip0_493_3648">
<rect width="56" height="53" fill="white" transform="translate(12.375 13.9316)"/>
</clipPath>
</defs>
</svg>
