<svg width="14" height="15" viewBox="0 0 14 15" fill="none" xmlns="http://www.w3.org/2000/svg">
<path d="M0.875 10.8354C0.875753 11.2027 0.954087 11.5658 1.10487 11.9007C1.25566 12.2357 1.4755 12.5351 1.75 12.7792V13.8978C1.75 14.0139 1.79609 14.1251 1.87814 14.2072C1.96019 14.2892 2.07147 14.3353 2.1875 14.3353H3.0625C3.17853 14.3353 3.28981 14.2892 3.37186 14.2072C3.45391 14.1251 3.5 14.0139 3.5 13.8978V13.4603H10.5V13.8978C10.5 14.0139 10.5461 14.1251 10.6281 14.2072C10.7102 14.2892 10.8215 14.3353 10.9375 14.3353H11.8125C11.9285 14.3353 12.0398 14.2892 12.1219 14.2072C12.2039 14.1251 12.25 14.0139 12.25 13.8978V12.7792C12.5245 12.5351 12.7443 12.2357 12.8951 11.9007C13.0459 11.5658 13.1242 11.2027 13.125 10.8354V9.52288H0.875V10.8354ZM13.5625 7.33541H2.1875V2.22902C2.18775 2.11419 2.222 2.00202 2.28593 1.90663C2.34985 1.81125 2.4406 1.73694 2.54671 1.69306C2.65283 1.64919 2.76956 1.63773 2.88218 1.66011C2.9948 1.6825 3.09827 1.73774 3.17953 1.81887L3.70645 2.3455C3.34742 3.16252 3.49836 3.96177 3.94215 4.52559L3.9375 4.53024C3.85577 4.61225 3.80987 4.72331 3.80987 4.83909C3.80987 4.95487 3.85577 5.06593 3.9375 5.14793L4.24676 5.45718C4.28738 5.49782 4.33562 5.53006 4.38871 5.55205C4.44179 5.57404 4.49869 5.58536 4.55615 5.58536C4.61361 5.58536 4.67051 5.57404 4.7236 5.55205C4.77669 5.53006 4.82492 5.49782 4.86555 5.45718L7.74676 2.57601C7.78739 2.53538 7.81963 2.48715 7.84162 2.43406C7.86361 2.38097 7.87493 2.32408 7.87493 2.26662C7.87493 2.20915 7.86361 2.15226 7.84162 2.09917C7.81963 2.04608 7.78739 1.99785 7.74676 1.95722L7.4375 1.64797C7.35546 1.56599 7.24422 1.51993 7.12824 1.51993C7.01226 1.51993 6.90102 1.56599 6.81898 1.64797L6.81434 1.65262C6.25051 1.20883 5.4518 1.0579 4.63422 1.41692L4.10758 0.890009C3.84276 0.625162 3.50535 0.444796 3.13801 0.37172C2.77068 0.298645 2.38992 0.336143 2.0439 0.479473C1.69788 0.622803 1.40214 0.865526 1.19407 1.17695C0.986007 1.48836 0.874969 1.85449 0.875 2.22902V7.33541H0.4375C0.321468 7.33541 0.210188 7.3815 0.128141 7.46354C0.0460936 7.54559 0 7.65687 0 7.7729L0 8.2104C0 8.32643 0.0460936 8.43771 0.128141 8.51975C0.210188 8.6018 0.321468 8.64789 0.4375 8.64789H13.5625C13.6785 8.64789 13.7898 8.6018 13.8719 8.51975C13.9539 8.43771 14 8.32643 14 8.2104V7.7729C14 7.65687 13.9539 7.54559 13.8719 7.46354C13.7898 7.3815 13.6785 7.33541 13.5625 7.33541Z" fill="#546455"/>
</svg>
