<svg width="26" height="26" viewBox="0 0 26 26" fill="none" xmlns="http://www.w3.org/2000/svg">
<path d="M4.50684 11.8673C4.50381 14.0466 6.86119 15.412 8.75009 14.3249C9.62916 13.819 10.1705 12.8815 10.169 11.8673C10.1721 9.68787 7.81469 8.32249 5.92579 9.40956C5.04672 9.91548 4.50543 10.853 4.50684 11.8673Z" stroke="#546455" stroke-width="1.5" stroke-linecap="round" stroke-linejoin="round"/>
<path d="M10.2992 8.19417C10.3762 7.42073 11.0126 6.84261 11.7889 6.81087C14.7497 6.68856 17.4851 6.86639 19.6815 7.11945C22.7708 7.47506 24.8907 10.1799 24.8907 13.2896V13.5659C24.8907 14.1913 24.3837 14.6983 23.7583 14.6983H11.4169C10.8682 14.6983 10.4017 14.3054 10.3388 13.7613C10.2263 12.7753 10.1696 11.7838 10.1689 10.7914C10.1689 9.77508 10.2312 8.87364 10.2992 8.19417Z" stroke="#546455" stroke-width="1.5" stroke-linecap="round" stroke-linejoin="round"/>
<path d="M3.36254 3.95883C3.99954 4.00525 4.47913 4.52676 4.50686 5.16485C4.50686 5.16485 4.50686 8.52822 4.50686 12.9997L4.50345 14.7924C5.84483 14.747 8.36456 14.6983 13.0002 14.6983H23.7482C24.3756 14.6983 24.8835 15.2091 24.879 15.8364C24.879 15.8889 24.879 20.798 24.879 20.798C24.8507 21.436 24.3807 21.9941 23.7437 22.04C23.3746 22.0663 23.0041 22.0665 22.635 22.0406C21.998 21.9941 21.6237 21.4721 21.596 20.834C21.5706 20.2552 21.596 18.0012 21.596 18.0012C21.596 18.0012 17.6653 18.0012 13.0002 18.0012C8.33168 18.0012 4.47518 18.0012 4.47518 18.0012C4.46353 18.9459 4.54429 19.8899 4.50686 20.834C4.47907 21.4721 3.99954 21.9941 3.36254 22.0406C3.20226 22.0519 3.01885 22.0593 2.8082 22.0593C2.59754 22.0593 2.41413 22.0519 2.25385 22.0406C1.61685 21.9941 1.13725 21.4721 1.10952 20.834C1.06142 19.727 1.10953 17.4711 1.10953 12.9997C1.10953 8.52881 1.06108 6.27185 1.10918 5.16485C1.13696 4.52676 1.61685 4.00525 2.25385 3.95883C2.41413 3.94751 2.59754 3.94014 2.8082 3.94014C3.01885 3.94014 3.20231 3.94691 3.36254 3.95883Z" stroke="#546455" stroke-width="1.5" stroke-linecap="round" stroke-linejoin="round"/>
</svg>
