<svg width="18" height="15" viewBox="0 0 18 15" fill="none" xmlns="http://www.w3.org/2000/svg">
<path d="M9.83333 10.765V2.43166C9.83333 1.97142 9.46024 1.59833 9 1.59833H2.33333C1.8731 1.59833 1.5 1.97142 1.5 2.43166V10.765C1.5 11.2252 1.8731 11.5983 2.33333 11.5983H3.16667M9.83333 10.765C9.83333 11.2252 9.46024 11.5983 9 11.5983H6.5M9.83333 10.765L9.83333 4.09833C9.83333 3.63809 10.2064 3.26499 10.6667 3.26499H12.8215C13.0425 3.26499 13.2545 3.35279 13.4107 3.50907L16.2559 6.35425C16.4122 6.51053 16.5 6.72249 16.5 6.94351V10.765C16.5 11.2252 16.1269 11.5983 15.6667 11.5983H14.8333M9.83333 10.765C9.83333 11.2252 10.2064 11.5983 10.6667 11.5983H11.5M3.16667 11.5983C3.16667 12.5188 3.91286 13.265 4.83333 13.265C5.75381 13.265 6.5 12.5188 6.5 11.5983M3.16667 11.5983C3.16667 10.6779 3.91286 9.93166 4.83333 9.93166C5.75381 9.93166 6.5 10.6779 6.5 11.5983M11.5 11.5983C11.5 12.5188 12.2462 13.265 13.1667 13.265C14.0871 13.265 14.8333 12.5188 14.8333 11.5983M11.5 11.5983C11.5 10.6779 12.2462 9.93166 13.1667 9.93166C14.0871 9.93166 14.8333 10.6779 14.8333 11.5983" stroke="#546455" stroke-width="1.5"/>
</svg>
