<svg width="66" height="40" viewBox="0 0 66 40" fill="none" xmlns="http://www.w3.org/2000/svg">
<path d="M65.6106 22.354C65.5923 20.429 64.7466 18.8982 63.1155 17.8081C62.1809 17.1819 61.2383 16.5686 60.3115 15.932C60.1308 15.8083 59.9633 15.6357 59.8429 15.4527C58.3479 13.1978 56.8634 10.9352 55.3737 8.6751C54.2374 6.95364 53.1142 5.22445 51.9544 3.51845C51.258 2.49794 50.3076 1.76864 49.1032 1.38208C48.2995 1.12438 47.48 0.985219 46.637 0.990373C44.299 1.00583 41.961 1.03676 39.623 1.03934C32.0539 1.04449 24.4823 1.03934 16.9132 1.04449C16.6959 1.04449 16.476 1.05222 16.2639 1.0883C15.7455 1.17334 15.3633 1.61402 15.3581 2.11396C15.3528 2.60875 15.7298 3.06746 16.2482 3.15251C16.5153 3.19632 16.7902 3.20405 17.0598 3.20405C24.6629 3.20405 32.266 3.20405 39.8691 3.19889C40.1728 3.19889 40.2723 3.2659 40.2723 3.58803C40.2618 7.8891 40.2644 12.1902 40.267 16.4938C40.267 17.0762 40.6493 17.4834 41.2357 17.5401C41.4085 17.5581 41.584 17.5581 41.7568 17.5607C42.3327 17.5607 42.9087 17.5607 43.4873 17.5607C48.4592 17.5607 53.4284 17.5556 58.4003 17.5659C58.6385 17.5659 58.916 17.6071 59.1098 17.7308C60.068 18.339 61.0079 18.9781 61.9478 19.6146C62.6652 20.1017 63.1469 20.764 63.3328 21.6041C63.4245 22.019 63.4716 22.4519 63.4742 22.8746C63.4873 24.7893 63.4742 26.7066 63.4742 28.6214C63.4742 29.3146 63.4742 30.0104 63.4742 30.7603H63.0972C62.3039 30.7603 61.508 30.7603 60.7147 30.7603C60.178 30.7603 60.1727 30.7603 60.0444 30.2475C59.1621 26.7453 55.7088 24.2533 51.6376 24.8795C48.6739 25.3356 46.3202 27.5699 45.6421 30.4691C45.5845 30.7139 45.4902 30.768 45.2572 30.768C41.2122 30.7603 37.1645 30.7629 33.1195 30.7629C32.9912 30.7629 32.8603 30.7629 32.732 30.7629C32.6509 30.4846 32.5828 30.2294 32.5016 29.9743C30.9386 25.0754 25.341 23.4003 21.2803 26.0134C19.6832 27.0416 18.6255 28.4925 18.2144 30.3506C18.1385 30.6933 17.9971 30.7758 17.6542 30.7706C15.989 30.75 14.3265 30.7577 12.6614 30.7655C12.4572 30.7655 12.2477 30.7887 12.0487 30.8376C11.5513 30.9587 11.2162 31.4071 11.224 31.9019C11.2345 32.4045 11.5775 32.8065 12.1063 32.907C12.2739 32.9405 12.4519 32.9405 12.6247 32.9405C14.3317 32.9405 16.0388 32.9328 17.7484 32.9276C17.8924 32.9276 18.0469 32.8838 18.0809 33.1209C18.2302 34.2264 18.5915 35.2598 19.2617 36.1721C21.0525 38.6254 23.49 39.7464 26.5218 39.3032C29.8547 38.8187 32.1429 36.5019 32.7346 33.2291C32.7844 32.9585 32.8839 32.9173 33.13 32.9173C37.1541 32.9224 41.1781 32.9224 45.2022 32.9224C45.2965 32.9224 45.3881 32.9353 45.4536 32.9405C45.5112 33.2085 45.5635 33.4379 45.6133 33.6672C46.5689 38.1074 51.3627 40.419 55.2637 38.9862C58.0154 37.976 59.7381 36.0793 60.1937 33.1698C60.2225 32.9869 60.2853 32.9096 60.4817 32.9199C60.7514 32.9379 61.0263 32.9302 61.2959 32.9302C62.3301 32.9302 63.3616 32.9456 64.3958 32.9224C65.1891 32.9044 65.6106 32.4947 65.6132 31.7576C65.6237 28.6214 65.6499 25.4877 65.6211 22.3514L65.6106 22.354ZM56.6121 15.3909C51.9911 15.3909 47.37 15.3883 42.7516 15.3934C42.516 15.3934 42.4296 15.3419 42.4296 15.0919C42.4375 11.2521 42.4322 7.41235 42.4296 3.57256C42.4296 3.40506 42.406 3.24786 42.66 3.24786C44.2675 3.25559 45.8777 3.21951 47.4852 3.27105C48.6163 3.30713 49.5221 3.8715 50.1714 4.76573C50.771 5.59038 51.3025 6.464 51.8628 7.31442C52.8001 8.73952 53.7374 10.1672 54.6773 11.5923C55.4575 12.7752 56.2377 13.958 57.0179 15.1409C57.0572 15.2002 57.0886 15.2672 57.1566 15.3909C56.9289 15.3909 56.7692 15.3909 56.6068 15.3909H56.6121ZM30.6218 32.0437C30.7082 35.399 27.7 37.239 25.5243 37.2802C22.791 37.3343 20.3116 35.082 20.1519 32.4148C19.9869 29.6445 22.2281 26.9721 25.3436 26.9386C28.2864 26.9076 30.7422 29.3532 30.6218 32.0411V32.0437ZM52.9205 37.2751C50.1243 37.3318 47.569 34.9042 47.5926 32.0694C47.6161 29.2631 49.9934 26.936 52.8524 26.9463C55.8057 26.9566 58.1149 29.2115 58.107 32.0772C58.1018 34.9171 55.7455 37.2184 52.9179 37.2751H52.9205Z" fill="white"/>
<path d="M8.41987 18.9732C10.3442 18.9732 12.2685 18.9732 14.1902 18.9732C14.5804 18.9732 14.9731 18.9835 15.3632 18.9526C16.057 18.8985 16.489 18.2284 16.2664 17.5816C16.0805 17.0404 15.6774 16.8214 14.8788 16.8214C10.5955 16.8214 6.31489 16.8214 2.03161 16.8214C1.84572 16.8214 1.65984 16.8188 1.47918 16.842C0.892721 16.9116 0.502618 17.3368 0.5 17.8934C0.5 18.4423 0.892721 18.8753 1.47657 18.9552C1.61533 18.9732 1.75932 18.9809 1.89809 18.9809C4.07114 18.9809 6.24682 18.9809 8.41987 18.9809V18.9706V18.9732Z" fill="white"/>
<path d="M9.03248 11.1129C10.8914 11.1181 12.7529 11.1129 14.6117 11.1129C16.3842 11.1129 18.1567 11.1155 19.9318 11.1129C20.191 11.1129 20.458 11.1026 20.7068 11.0459C21.1806 10.9377 21.5262 10.4712 21.5158 10.0022C21.5053 9.51514 21.1702 9.09766 20.6753 8.98943C20.4659 8.94304 20.246 8.93016 20.0287 8.93016C16.4497 8.92758 12.8707 8.92758 9.29167 8.93016C9.07698 8.93016 8.85444 8.94562 8.64499 8.99458C8.05591 9.13116 7.72341 9.69811 7.87526 10.2779C8.01926 10.8269 8.39889 11.1103 9.02986 11.1129H9.03248Z" fill="white"/>
<path d="M14.2532 25.4954C14.7506 25.3923 15.0727 24.9774 15.07 24.4749C15.0674 23.8203 14.5752 23.3874 13.8081 23.3848C12.5252 23.3771 11.2423 23.3848 9.95943 23.3848V23.3899C8.68701 23.3899 7.41721 23.3899 6.1448 23.3899C5.94058 23.3899 5.73113 23.4054 5.52953 23.4492C5.03471 23.5549 4.67864 24.0136 4.69435 24.4981C4.71006 24.9877 5.08707 25.4181 5.58451 25.5005C5.78611 25.534 5.99556 25.5495 6.19978 25.5495C8.67916 25.5521 11.1559 25.5521 13.6353 25.5495C13.8395 25.5495 14.049 25.5366 14.2506 25.4954H14.2532Z" fill="white"/>
</svg>
