<svg width="24" height="25" viewBox="0 0 24 25" fill="none" xmlns="http://www.w3.org/2000/svg">
<path d="M12 6.93164V4.93164M12 6.93164C10.8954 6.93164 10 7.82707 10 8.93164C10 10.0362 10.8954 10.9316 12 10.9316M12 6.93164C13.1046 6.93164 14 7.82707 14 8.93164C14 10.0362 13.1046 10.9316 12 10.9316M6 18.9316C7.10457 18.9316 8 18.0362 8 16.9316C8 15.8271 7.10457 14.9316 6 14.9316M6 18.9316C4.89543 18.9316 4 18.0362 4 16.9316C4 15.8271 4.89543 14.9316 6 14.9316M6 18.9316V20.9316M6 14.9316V4.93164M12 10.9316V20.9316M18 18.9316C19.1046 18.9316 20 18.0362 20 16.9316C20 15.8271 19.1046 14.9316 18 14.9316M18 18.9316C16.8954 18.9316 16 18.0362 16 16.9316C16 15.8271 16.8954 14.9316 18 14.9316M18 18.9316V20.9316M18 14.9316V4.93164" stroke="#2B2B2B" stroke-width="1.3" stroke-linecap="round" stroke-linejoin="round"/>
</svg>
