<svg width="58" height="68" viewBox="0 0 58 68" fill="none" xmlns="http://www.w3.org/2000/svg">
<path d="M45.2549 67.4316C46.2071 67.1026 47.2284 66.8909 48.0986 66.4218C51.0643 64.8257 52.5135 61.5267 51.7143 58.4308C50.875 55.1755 48.0531 52.9389 44.5649 52.7901C43.6383 52.7516 42.7098 52.7849 41.7776 52.7849C41.5665 52.1373 41.7321 51.761 42.3074 51.3953C44.8162 49.8026 46.9134 47.7882 48.6448 45.4256C49.2547 44.5925 49.2055 43.8872 48.4937 43.1154C47.7545 42.3156 47.0118 41.5176 46.2562 40.7335C45.3459 39.7884 44.1553 39.8917 43.3834 40.954C42.8918 41.6313 42.3802 42.2964 41.7722 43.1067C41.7321 42.7794 41.6957 42.6236 41.6957 42.4679C41.6921 41.0923 41.7012 39.7167 41.6902 38.3411C41.6811 37.116 41.0294 36.4929 39.7532 36.4807C38.821 36.4719 37.8907 36.4649 36.9586 36.4859C36.5817 36.4947 36.3505 36.4002 36.1485 36.0589C34.7921 33.7803 32.8059 32.3102 30.1005 31.7711C29.9312 31.7379 29.68 31.5383 29.6691 31.4018C29.5726 30.2468 29.589 29.1004 30.6922 28.3216C30.8961 28.1781 31.2093 28.0661 31.4514 28.0959C34.3716 28.4616 36.8166 25.8679 36.1084 23.1237C35.9172 22.3834 35.4184 21.9022 34.6483 21.7184C31.9866 21.0814 29.3887 23.0922 29.4506 25.7314C29.4664 26.4198 29.1915 27.0014 28.6259 27.4763C28.0815 27.0598 27.6865 26.6888 27.7611 25.8469C27.9978 23.1658 25.2943 21.0586 22.5907 21.7201C21.8206 21.9092 21.3254 22.3939 21.1397 23.136C20.4461 25.8924 22.8838 28.4616 25.8113 28.0924C26.037 28.0643 26.3265 28.1554 26.5159 28.2866C27.6482 29.0742 27.681 30.2363 27.5845 31.4158C27.5736 31.5453 27.3588 31.7361 27.2113 31.7641C24.4441 32.2856 22.4542 33.8083 21.036 36.1044C20.9194 36.2934 20.5899 36.4509 20.3514 36.4614C19.3756 36.5017 18.398 36.4684 17.4221 36.4824C16.237 36.4999 15.5743 37.1335 15.5615 38.2816C15.5451 39.8234 15.5579 41.3653 15.5579 43.1049C12.8817 40.1035 11.4944 36.808 11.174 32.9559C11.8967 32.9559 12.5886 32.9419 13.2804 32.9594C14.0687 32.9787 14.7386 32.7757 15.0754 32.0371C15.3995 31.3266 15.1173 30.7368 14.6021 30.1942C12.7506 28.2411 10.9191 26.2722 9.07122 24.3156C8.11361 23.3005 7.21243 23.3075 6.25845 24.3226C4.41787 26.2845 2.58274 28.2516 0.734871 30.2065C0.22147 30.7508 -0.062542 31.3318 0.276085 32.0476C0.611069 32.7564 1.24463 32.9734 2.00926 32.9594C2.712 32.9472 3.41474 32.9559 4.13568 32.9559C4.29771 34.0795 4.40694 35.1821 4.62177 36.2654C5.89616 42.6411 9.35887 47.6535 14.8734 51.376C15.5852 51.8573 15.5907 51.8485 15.5142 52.7761C14.6676 52.7761 13.812 52.7621 12.9563 52.7779C9.3261 52.8444 6.40046 55.0758 5.53569 58.4308C4.50161 62.435 7.30892 66.5723 11.549 67.3039C11.7001 67.3301 11.8458 67.3879 11.9932 67.4316H16.4918C16.9124 67.0799 17.3074 66.7176 17.0544 66.105C16.805 65.5013 16.277 65.4557 15.7035 65.4627C14.704 65.475 13.7046 65.489 12.7069 65.4558C9.80309 65.3595 7.43272 63.0371 7.36535 60.2491C7.29253 57.1619 9.81583 54.745 13.1584 54.7432C22.5816 54.7345 32.0049 54.7397 41.4281 54.7397C42.4276 54.7397 43.4271 54.717 44.4247 54.7485C47.5161 54.8482 49.9174 57.2477 49.8846 60.1791C49.85 63.1473 47.3467 65.461 44.1371 65.4645C36.5071 65.4715 28.8789 65.4697 21.249 65.4627C20.6609 65.4627 20.1311 65.545 19.9272 66.1453C19.7233 66.7456 20.0692 67.1411 20.5808 67.4316H45.2549ZM17.6424 52.7498V38.4758H24.0799C24.0799 38.7436 24.0799 38.9781 24.0799 39.2126C24.0799 41.1763 24.0854 43.1417 24.0781 45.1053C24.0763 45.6741 24.2529 46.1449 24.81 46.4039C25.3598 46.6577 25.8641 46.5299 26.3356 46.1834C26.9492 45.7336 27.59 45.3153 28.1853 44.8445C28.5148 44.5838 28.7497 44.6013 29.0683 44.8498C29.6509 45.3013 30.2735 45.7056 30.8634 46.1466C31.3495 46.5089 31.8665 46.6647 32.4436 46.3986C33.0353 46.1256 33.1755 45.6216 33.1718 45.0336C33.1627 43.0909 33.1682 41.1483 33.1682 39.2056C33.1682 38.9711 33.1682 38.7384 33.1682 38.4986H39.5984V52.7481H17.6424V52.7498ZM15.5524 49.4299C12.208 47.0689 9.78306 44.2092 8.1664 40.7247C6.98849 38.1853 6.35494 35.5234 6.25663 32.7424C6.21476 31.5593 5.63582 31.0063 4.45428 30.9923C3.94452 30.9871 3.43476 30.9923 2.75205 30.9923C4.46884 29.1634 6.05819 27.4693 7.67121 25.7507C9.30061 27.4903 10.8845 29.1827 12.5758 30.9906C11.9386 30.9906 11.4889 30.9906 11.0411 30.9906C9.65198 30.9958 9.0603 31.5453 9.13676 32.8667C9.42805 37.7845 11.4088 41.9761 15.0536 45.4431C15.252 45.6321 15.5178 45.8771 15.5288 46.1064C15.5797 47.1652 15.5506 48.2275 15.5506 49.4316L15.5524 49.4299ZM31.0818 43.8417C30.5302 43.4514 30.0641 43.1172 29.5944 42.7916C28.828 42.2614 28.4001 42.2666 27.6246 42.8056C27.1585 43.1294 26.6943 43.4567 26.1663 43.8277V38.4881H31.0818V43.8435V43.8417ZM33.9219 36.4229H23.3281C25.6092 32.7319 31.6335 32.7319 33.9219 36.4229ZM41.6957 49.4281C41.6957 48.224 41.6866 47.1617 41.7066 46.0994C41.7103 45.9524 41.8377 45.7861 41.9506 45.6636C42.9592 44.5733 43.9769 43.4917 45.0346 42.3611C45.6172 42.9824 46.2635 43.6702 46.9171 44.3668C45.4752 46.3199 43.793 47.9528 41.6957 49.4281ZM31.4915 25.6282C31.506 24.4976 32.5255 23.5455 33.6397 23.549C34.053 23.549 34.1986 23.717 34.1968 24.0986C34.1913 25.1696 33.1919 26.134 32.0704 26.1567C31.628 26.1655 31.4332 26.0062 31.4915 25.6299V25.6282ZM25.2324 26.1497C24.0727 26.1515 23.0677 25.1854 23.0531 24.1091C23.0477 23.7363 23.1769 23.5525 23.5975 23.549C24.7335 23.5385 25.7712 24.5396 25.7621 25.6352C25.7585 26.0377 25.5892 26.1935 25.2305 26.1515L25.2324 26.1497Z" fill="#546455"/>
<path d="M54.4743 32.9542C52.7867 34.7551 51.2137 36.4317 49.5807 38.1731C47.9604 36.4474 46.3783 34.7603 44.6834 32.9542C45.5263 32.9542 46.1981 32.9612 46.8717 32.9525C47.7892 32.9402 48.1588 32.5937 48.1279 31.7064C47.8803 24.6411 44.5468 19.319 38.2859 15.6577C38.1311 15.5667 37.9691 15.4862 37.8144 15.3952C37.7798 15.3742 37.7616 15.3287 37.7088 15.2587C37.8945 14.8649 38.1311 14.4641 38.2713 14.0354C38.4079 13.6118 38.4461 13.1568 38.5608 12.5285C39.9499 13.4298 41.2971 14.2979 42.637 15.1764C42.8792 15.3357 43.0885 15.5422 43.3234 15.7137C43.8295 16.083 44.4267 16.0567 44.7926 15.656C45.1767 15.2359 45.1531 14.5866 44.6105 14.2174C43.0212 13.1358 41.4173 12.07 39.766 11.0794C38.9468 10.5894 38.011 10.2778 37.0206 9.83856C37.2555 9.56554 37.4521 9.28902 37.6979 9.0615C38.4643 8.35445 38.7155 7.54415 38.264 6.63233C37.8362 5.77127 37.3301 4.93821 36.7657 4.1524C36.1831 3.3386 35.3439 3.13033 34.3571 3.4121C33.0026 3.79888 32.3418 3.42085 31.9995 2.06626C31.7701 1.15619 31.1329 0.543649 30.1607 0.478894C29.1485 0.412389 28.1235 0.410639 27.1113 0.478894C26.1009 0.545399 25.4746 1.15444 25.2434 2.11176C24.9339 3.3981 24.2239 3.79713 22.9131 3.42085C21.9227 3.13558 21.0725 3.33335 20.4954 4.14015C19.9201 4.94346 19.4067 5.79927 18.9715 6.67958C18.5401 7.5529 18.8004 8.37545 19.5396 9.05275C19.7799 9.27327 19.9856 9.52704 20.2678 9.83156C19.982 9.95932 19.7908 10.0556 19.5905 10.1326C15.1393 11.867 11.5109 14.6059 8.70903 18.3529C7.95895 19.354 7.99537 19.9875 8.85649 20.9203C9.521 21.6379 10.191 22.3519 10.8664 23.059C11.9387 24.1791 13.0802 24.0968 13.9431 22.835C15.5726 20.4566 17.6662 18.5629 20.2769 17.1996C20.6228 17.0193 20.8813 17.0316 21.2691 17.1436C21.8007 17.2958 22.4343 17.3326 22.9713 17.2066C24.1947 16.9178 24.9576 17.3028 25.2288 18.4999C25.46 19.5167 26.0972 20.1363 27.1786 20.2185C28.1253 20.2903 29.0848 20.2921 30.0315 20.222C31.1384 20.1415 31.7828 19.515 32.0195 18.4614C32.2762 17.3186 33.0791 16.8601 34.237 17.2276C34.876 17.4288 35.4695 17.4113 36.0848 17.1331C36.2887 17.0421 36.6255 17.0316 36.8149 17.1331C41.9671 19.8948 45.0347 24.0653 45.9323 29.6832C45.996 30.0875 46.0215 30.497 46.0724 30.9836C45.2641 30.9836 44.5195 30.9958 43.7767 30.9801C43.0448 30.9643 42.4805 31.2268 42.1801 31.8761C41.8797 32.5254 42.0672 33.103 42.5551 33.6192C44.4594 35.6441 46.351 37.6795 48.2589 39.7009C49.1019 40.5935 50.0449 40.5882 50.8915 39.6922C52.7867 37.6883 54.6655 35.6721 56.5571 33.6665C57.0559 33.138 57.2944 32.5622 56.9721 31.8744C56.6517 31.1901 56.0564 30.9591 55.3063 30.9801C54.5818 30.9993 53.8572 30.9836 53.1144 30.9836C52.9487 29.832 52.8285 28.7119 52.6228 27.6041C51.9747 24.1091 50.511 20.9466 48.3336 18.0834C47.8548 17.4516 47.2886 17.3011 46.7734 17.6459C46.229 18.0081 46.1908 18.5804 46.6896 19.2455C49.4733 22.9452 50.9297 27.0668 50.9952 31.6399C51.0098 32.6077 51.3648 32.9402 52.357 32.9472C53.0051 32.9525 53.6533 32.9472 54.4671 32.9472L54.4743 32.9542ZM27.3134 18.3039C27.2351 18.0204 27.1859 17.8314 27.1277 17.6424C26.6143 15.9482 24.8629 14.7897 23.0915 15.2114C22.1375 15.439 21.7843 15.0959 21.4402 14.4309C21.3182 14.1964 21.1981 13.9619 21.0579 13.7378C20.8285 13.3721 20.8613 13.1253 21.2199 12.7963C22.5781 11.5467 22.6819 9.55329 21.5203 8.16194C21.0494 7.59723 21.0003 6.99986 21.3729 6.36981C21.4967 6.16155 21.6423 5.96553 21.7679 5.75902C21.9846 5.40549 22.2103 5.27423 22.6982 5.40549C24.5406 5.89553 26.3375 5.00472 27.0221 3.3351C27.3012 2.65488 27.8207 2.31361 28.5805 2.31127C28.808 2.31127 29.0338 2.32878 29.2614 2.32528C29.7529 2.31652 29.9951 2.50554 30.1298 3.00257C30.6031 4.7492 32.3836 5.86753 34.1951 5.45275C35.058 5.25498 35.444 5.53325 35.7681 6.1808C35.8955 6.43632 36.032 6.68833 36.185 6.92985C36.4162 7.29388 36.387 7.54239 36.0302 7.87142C34.6739 9.12276 34.5701 11.1249 35.7335 12.5057C36.2068 13.0681 36.2554 13.6667 35.8791 14.3014C35.7553 14.5096 35.6078 14.7039 35.4859 14.9139C35.2601 15.3042 35.0034 15.4075 34.5046 15.2674C32.6148 14.7424 30.6759 15.8152 30.1225 17.6301C30.0606 17.8349 30.0023 18.0414 29.9259 18.3022H27.3115L27.3134 18.3039ZM10.3257 19.5535C12.5686 16.5643 15.3486 14.2734 18.6238 12.7105C18.9169 13.6136 19.1936 14.4694 19.4467 15.2464C18.1577 16.1688 16.7723 17.0141 15.5744 18.0571C14.3637 19.1107 13.3369 20.3586 12.2027 21.5486C11.6165 20.9256 10.9975 20.2658 10.3257 19.5535Z" fill="#546455"/>
<path d="M40.9276 60.1039C40.9276 61.8715 42.466 63.3539 44.3066 63.3556C46.1472 63.3556 47.6874 61.8785 47.6892 60.1109C47.691 58.3433 46.1545 56.8626 44.3121 56.8609C42.4715 56.8574 40.9295 58.3363 40.9276 60.1056V60.1039ZM42.9794 60.0759C42.9994 59.4003 43.6075 58.8315 44.3084 58.8315C45.033 58.8315 45.6629 59.4493 45.6411 60.1389C45.6192 60.8092 45.0057 61.385 44.3102 61.3867C43.5893 61.3867 42.9594 60.7672 42.9794 60.0759Z" fill="#546455"/>
<path d="M12.9309 63.3539C14.7697 63.3591 16.3135 61.8855 16.3208 60.1161C16.3281 58.3502 14.7933 56.8661 12.9491 56.8591C11.1103 56.8521 9.56467 58.3275 9.55921 60.0969C9.55375 61.8627 11.0921 63.3486 12.9309 63.3539ZM11.6092 60.0759C11.6274 59.4056 12.2391 58.8315 12.9382 58.8298C13.6664 58.828 14.2927 59.4423 14.2708 60.1371C14.249 60.8109 13.6373 61.385 12.9418 61.3867C12.2209 61.3867 11.5891 60.7672 11.6073 60.0776L11.6092 60.0759Z" fill="#546455"/>
<path d="M28.6424 56.8591C26.8054 56.8469 25.2561 58.3205 25.2452 60.0916C25.2343 61.8558 26.7708 63.3451 28.6096 63.3556C30.4465 63.3661 31.9958 61.8943 32.0068 60.1231C32.0195 58.359 30.4866 56.8714 28.6424 56.8591ZM27.2951 60.0829C27.3097 59.4108 27.9178 58.835 28.6169 58.8298C29.3433 58.8245 29.975 59.4353 29.9586 60.1301C29.9422 60.8004 29.3324 61.3797 28.6369 61.3867C27.9178 61.3937 27.2806 60.7742 27.2951 60.0846V60.0829Z" fill="#546455"/>
<path d="M28.6407 6.74084C26.5525 6.73384 24.8612 8.3457 24.863 10.3426C24.8648 12.3272 26.5834 13.9724 28.6443 13.9601C30.6833 13.9496 32.3601 12.3412 32.3874 10.3723C32.4147 8.3877 30.7216 6.74784 28.6388 6.74084H28.6407ZM26.9148 10.3198C26.9275 9.39403 27.7049 8.68523 28.6807 8.70973C29.6128 8.73248 30.3502 9.46753 30.3374 10.3618C30.3247 11.2439 29.5509 11.9842 28.637 11.9912C27.6994 11.9982 26.902 11.2247 26.9148 10.3198Z" fill="#546455"/>
</svg>
