<svg width="60" height="64" viewBox="0 0 60 64" fill="none" xmlns="http://www.w3.org/2000/svg">
<path d="M58.9403 40.989C58.9026 40.9255 58.8625 40.8646 58.8199 40.8037C57.4332 38.7252 56.0466 36.6467 54.6574 34.5707C52.9372 31.9948 51.2195 29.4188 49.4918 26.848C49.0054 26.1222 48.5891 26.0333 47.8569 26.48C46.9918 27.0053 46.1367 27.551 45.2741 28.0814C44.0103 28.858 42.739 29.6143 41.4827 30.4035C40.9536 30.736 40.8659 31.2131 41.1718 31.7689C41.2546 31.9186 41.3423 32.0633 41.4501 32.2536C41.2445 32.2333 41.0991 32.2105 40.9562 32.208C38.9426 32.1521 36.9516 31.8704 34.9681 31.5456C32.4004 31.1243 29.8227 30.9263 27.2223 30.9923C25.941 31.0253 24.8703 31.4745 24.0628 32.5074C23.9023 32.713 23.7519 32.9338 23.5638 33.114C23.456 33.218 23.283 33.3119 23.1451 33.3068C21.7183 33.2586 20.294 33.1876 18.8672 33.1216C18.7368 33.1165 18.6039 33.0987 18.4284 33.081C18.5161 32.9592 18.5763 32.878 18.634 32.7942C19.0402 32.175 18.9324 31.6116 18.313 31.2309C16.0989 29.868 13.8822 28.5103 11.6605 27.1576C11.0186 26.7668 10.5497 26.8886 10.1585 27.5307C9.68207 28.3098 9.21065 29.0915 8.74675 29.8782C6.31694 34.0048 3.88964 38.1313 1.46485 42.2579C1.09875 42.8822 0.735152 43.5116 0.384095 44.1435C0.00796386 44.8186 0.113281 45.2348 0.752704 45.6764C0.78781 45.6993 0.820408 45.7246 0.858021 45.7449C3.06215 47.1052 5.26378 48.4655 7.47041 49.8233C7.90673 50.0923 8.34304 50.0212 8.67905 49.6304C8.79941 49.4883 8.88467 49.3157 8.98246 49.1558C9.11536 48.935 9.24325 48.7142 9.39621 48.4579C10.0256 49.1203 10.6099 49.7472 11.2092 50.3588C11.3747 50.5263 11.4223 50.6811 11.3822 50.9171C11.1189 52.4525 11.7909 53.7291 13.1826 54.3255C13.486 54.4549 13.8145 54.5183 14.153 54.6199C14.1856 55.5614 14.5492 56.3684 15.2614 57.0131C15.981 57.6653 16.8411 57.8658 17.6661 57.8353C17.967 58.4165 18.1651 58.9926 18.5187 59.4393C19.2534 60.3656 20.2664 60.6828 21.4249 60.5128C21.5779 60.4899 21.7057 60.4316 21.7935 60.66C22.5934 62.703 24.958 63.2359 26.5503 61.7386C26.8713 61.4366 27.1722 61.1143 27.4831 60.8021C27.6286 60.6549 27.7765 60.5102 27.9194 60.3681C28.0423 60.4493 28.1301 60.5052 28.2153 60.5635C29.3036 61.2868 30.3768 62.033 31.4801 62.7283C33.2379 63.8323 35.4245 63.1369 36.2746 61.2234C36.3573 61.0381 36.4651 61.0407 36.6181 61.0457C38.5715 61.1041 39.9506 60.0128 40.3418 58.0815C40.3819 57.8836 40.4572 57.8328 40.6477 57.8252C41.9617 57.777 43.3082 56.7237 43.6618 55.4447C43.727 55.2036 43.8198 55.1604 44.0404 55.1604C45.1538 55.1655 46.1217 54.8203 46.8664 53.9346C47.4933 53.1885 47.8569 52.3434 47.7742 51.3562C47.6588 49.9806 46.9893 48.9376 45.8283 48.2143C45.7456 48.161 45.6678 48.1001 45.5675 48.029C45.7706 47.9224 45.9336 47.8361 46.0966 47.7498C47.4407 47.0342 48.7872 46.321 50.1287 45.6003C50.2942 45.5115 50.3895 45.5343 50.4848 45.6967C50.5901 45.8769 50.708 46.0546 50.8384 46.217C51.1744 46.6357 51.5831 46.7195 52.0571 46.4835C52.1874 46.42 52.3153 46.3489 52.4407 46.2753C53.6468 45.547 54.8555 44.8186 56.0566 44.0826C56.9117 43.5598 57.7642 43.0345 58.6093 42.4914C59.2361 42.0879 59.3239 41.6361 58.9378 40.9941L58.9403 40.989ZM7.65597 47.6509C5.91072 46.5697 4.20058 45.5115 2.45783 44.4329C5.4368 39.3673 8.40322 34.3245 11.3872 29.2513C13.14 30.3325 14.8601 31.3933 16.5803 32.4541C13.6014 37.5273 10.6374 42.5751 7.65597 47.6509ZM15.0507 52.3637C14.7147 52.686 14.2859 52.7241 13.8571 52.521C13.4384 52.3231 13.2603 51.9602 13.2002 51.3993C13.2729 51.242 13.3305 50.9501 13.5011 50.7648C14.1555 50.0593 14.82 49.3563 15.5297 48.7092C16.2192 48.0798 17.2122 48.4706 17.3878 49.3944C17.4504 49.7319 17.3552 50.0289 17.127 50.2649C16.4449 50.9729 15.7629 51.6835 15.0532 52.3637H15.0507ZM18.2754 55.4497C18.0121 55.7162 17.7112 55.8761 17.3351 55.8761C16.8361 55.8812 16.4098 55.6147 16.2318 55.1452C16.0537 54.6782 16.0337 54.2163 16.4223 53.8255C17.5808 52.6555 18.7318 51.4831 19.8978 50.3207C20.3115 49.9096 20.8607 49.8385 21.3321 50.0872C21.8136 50.341 22.1019 50.8613 21.9816 51.4018C21.9264 51.6531 21.776 51.9145 21.5954 52.0972C20.4996 53.224 19.3812 54.328 18.2754 55.4472V55.4497ZM21.8361 58.183C21.4324 58.5865 20.946 58.721 20.4093 58.4749C19.9154 58.249 19.6822 57.8404 19.6621 57.1374C19.7273 57.0131 19.81 56.7263 19.9906 56.5385C20.8983 55.5995 21.8236 54.6731 22.7639 53.7646C23.2228 53.3205 23.9675 53.3636 24.4039 53.8103C24.8728 54.2899 24.9104 55.0462 24.4565 55.5183C23.5939 56.4167 22.7188 57.3024 21.8386 58.1805L21.8361 58.183ZM27.2424 58.2389C26.8838 58.6474 26.4876 59.0205 26.104 59.4088C25.8031 59.7134 25.5172 60.0407 25.1912 60.3148C24.9956 60.4798 24.7349 60.5661 24.5042 60.6854C24.0653 60.627 23.7895 60.424 23.6215 60.0788C23.451 59.7235 23.4936 59.3682 23.7644 59.0814C24.464 58.3454 25.1712 57.6171 25.8933 56.9039C26.2369 56.5639 26.786 56.5969 27.1371 56.9344C27.5207 57.3024 27.5834 57.848 27.2399 58.2363L27.2424 58.2389ZM45.6177 52.4449C45.1713 53.1809 44.1934 53.4626 43.4261 53.0286C43.0023 52.7901 42.6187 52.4703 42.2225 52.1835C39.8854 50.4907 37.5559 48.7904 35.2114 47.1078C34.9531 46.9225 34.6221 46.7601 34.3162 46.7372C33.91 46.7068 33.6341 47.0063 33.4887 47.392C33.3458 47.7651 33.4837 48.0798 33.7394 48.3386C33.8999 48.5011 34.0905 48.6356 34.2761 48.7701C36.761 50.5973 39.2485 52.4221 41.736 54.2442C41.894 54.361 41.9441 54.4701 41.894 54.6681C41.6257 55.7467 40.4772 56.2314 39.5294 55.6122C38.8323 55.1553 38.1853 54.6199 37.5158 54.1148C36.3047 53.2012 35.1086 52.2723 33.8849 51.3765C33.2781 50.9323 32.5283 51.2445 32.3929 51.9678C32.3101 52.4068 32.5433 52.7139 32.8643 52.9626C33.8473 53.7265 34.8277 54.4955 35.8157 55.2492C36.6131 55.8583 37.418 56.4598 38.2305 57.0461C38.4611 57.2136 38.5138 57.409 38.4862 57.6704C38.3684 58.782 37.2249 59.4342 36.2345 58.9368C35.9661 58.8023 35.7229 58.6119 35.4872 58.4241C34.3513 57.5333 33.2204 56.6349 32.087 55.7416C31.9315 55.6198 31.771 55.4954 31.6005 55.399C31.2043 55.1731 30.7429 55.267 30.442 55.6172C30.1637 55.9421 30.1336 56.3938 30.3969 56.7517C30.5198 56.9166 30.6802 57.0587 30.8432 57.1882C31.9917 58.0967 33.1452 58.9977 34.2961 59.9062C34.6722 60.2032 34.6748 60.2488 34.419 60.6524C33.9952 61.3198 33.1803 61.5076 32.4731 61.061C31.8738 60.6828 31.2996 60.259 30.7128 59.8605C30.254 59.5484 29.7876 59.2515 29.3362 58.9292C29.2635 58.8784 29.2033 58.721 29.2259 58.6373C29.7299 56.8253 28.8823 55.2848 27.0945 54.8203C26.8086 54.7467 26.6932 54.6528 26.6506 54.3229C26.4751 52.9043 25.6075 51.9526 24.2283 51.6049C24.0001 51.5465 23.9149 51.4704 23.9149 51.214C23.9149 48.7092 21.4926 47.2144 19.2759 48.3412C19.2408 48.3589 19.2032 48.3742 19.143 48.397C19.0503 48.2244 18.97 48.0544 18.8722 47.897C17.8868 46.2703 15.5999 45.9657 14.2408 47.2854C13.7292 47.7828 13.2328 48.293 12.7463 48.8132C12.5908 48.9807 12.4955 48.9807 12.3476 48.8208C11.7508 48.1737 11.144 47.5341 10.5572 46.8794C10.4945 46.8108 10.482 46.618 10.5321 46.5342C12.0442 43.9532 13.5663 41.3773 15.0883 38.8013C15.793 37.6085 16.4875 36.4107 17.2047 35.2255C17.2674 35.124 17.4555 35.0453 17.5833 35.0478C18.6967 35.0757 19.81 35.129 20.9259 35.1696C21.2143 35.1798 21.5001 35.1696 21.8712 35.1696C21.2469 35.9209 20.6902 36.5832 20.1385 37.2507C19.128 38.4689 18.1124 39.6845 17.1094 40.9103C16.5176 41.6336 16.6255 42.2071 17.4028 42.7223C19.464 44.0826 21.4575 43.7882 23.4209 42.4939C24.296 41.9153 24.9681 41.1209 25.6727 40.3596C26.2845 39.6972 26.8939 39.0323 27.4957 38.3597C27.6436 38.1948 27.7489 38.1796 27.9345 38.309C31.3924 40.6946 34.8528 43.0776 38.3182 45.4505C40.3543 46.8438 42.4005 48.2168 44.4416 49.6C44.6999 49.7751 44.9532 49.9629 45.2039 50.1507C45.9086 50.6836 46.0866 51.6683 45.6177 52.4398V52.4449ZM47.1749 44.9709C46.0941 45.5394 45.0109 46.1002 43.9376 46.6814C43.6944 46.8134 43.5464 46.6916 43.3759 46.5748C41.7235 45.4379 40.0785 44.2907 38.4235 43.1589C35.0835 40.8798 31.7359 38.6059 28.3934 36.332C28.3407 36.2965 28.288 36.2635 28.2354 36.2305C27.5859 35.8143 27.2675 35.8473 26.7284 36.4157C25.5724 37.6314 24.4314 38.8597 23.273 40.0753C22.5734 40.8113 21.7559 41.3773 20.7554 41.5752C20.3291 41.659 19.8702 41.5828 19.4264 41.5676C19.3537 41.5676 19.2835 41.5092 19.1857 41.4636C19.4164 41.1869 19.622 40.9408 19.8276 40.692C21.618 38.512 23.4084 36.3295 25.2013 34.1494C25.3417 33.9794 25.4821 33.8093 25.625 33.6419C26.0062 33.1926 26.4876 32.9668 27.0744 32.9541C29.7901 32.8906 32.4781 33.1114 35.1612 33.5505C37.596 33.9515 40.0484 34.2611 42.5284 34.1875C42.6638 34.1824 42.8569 34.2839 42.9321 34.3981C45.0058 37.4943 47.067 40.6007 49.1282 43.7045C49.1633 43.7552 49.1884 43.8136 49.231 43.8923C48.5415 44.2552 47.8594 44.6105 47.1774 44.9709H47.1749ZM51.8514 44.344C49.0129 40.0931 46.1668 35.8295 43.2957 31.5303C43.5565 31.3705 43.8173 31.208 44.0806 31.0482C45.3895 30.2487 46.7034 29.4569 47.9998 28.6397C48.2456 28.4849 48.3534 28.5382 48.4938 28.7488C49.6448 30.4797 50.8008 32.2054 51.9542 33.9312C53.4989 36.2432 55.046 38.5526 56.5907 40.8646C56.6885 41.0093 56.7712 41.1641 56.8565 41.3037C55.184 42.3188 53.544 43.3162 51.8539 44.3415L51.8514 44.344Z" fill="white"/>
<path d="M17.3109 12.9733C17.4739 12.8616 17.6243 12.7297 17.7773 12.6028C18.1334 12.3135 18.4869 12.0241 18.8957 11.6917C18.9032 11.8414 18.9107 11.9125 18.9107 11.9861C18.9107 15.0645 18.9107 18.1429 18.9107 21.2239C18.9107 22.3203 18.9057 23.4166 18.9107 24.513C18.9132 24.9876 19.2016 25.3378 19.6529 25.4393C19.8234 25.4774 20.004 25.4926 20.177 25.4926C22.168 25.4951 24.1565 25.4926 26.1475 25.4926C27.1279 25.4926 27.4765 25.1373 27.474 24.1374C27.4715 21.6604 27.4664 19.1809 27.4639 16.704C27.4639 16.5289 27.4639 16.3537 27.4639 16.1456C27.6094 16.1456 27.7097 16.1456 27.8125 16.1456C29.0412 16.1533 30.2724 16.171 31.5011 16.1583C31.7819 16.1558 31.8496 16.2167 31.8496 16.5009C31.8421 19.1048 31.8471 21.7086 31.8546 24.315C31.8546 25.0815 32.2584 25.4926 33.0131 25.4926C35.0969 25.4977 37.1807 25.4977 39.2644 25.4926C40.0368 25.4926 40.4254 25.0764 40.4254 24.2922C40.4229 20.1808 40.4204 16.067 40.4204 11.9556C40.4204 11.8795 40.4355 11.8008 40.448 11.6993C40.5383 11.7602 40.601 11.7957 40.6561 11.8414C41.1175 12.2196 41.5638 12.6155 42.0403 12.9758C42.5719 13.3768 43.2915 13.1103 43.4921 12.4657C43.6451 11.9734 43.4144 11.6358 43.0659 11.3389C40.6586 9.30609 38.2514 7.27326 35.8466 5.24043C34.0638 3.73293 32.2859 2.2229 30.5006 0.717947C29.8611 0.17992 29.475 0.190071 28.8456 0.723023C28.3516 1.14177 27.8526 1.56052 27.3586 1.97927C24.1113 4.7227 20.8641 7.4636 17.6218 10.2096C17.1103 10.641 16.5987 11.0775 16.1173 11.5419C15.7261 11.9201 15.7236 12.4175 16.0571 12.821C16.3856 13.2144 16.8671 13.2778 17.3134 12.9758L17.3109 12.9733ZM20.8315 10.3999C20.8315 10.1537 20.9092 9.98624 21.0923 9.83143C23.9183 7.45091 26.7418 5.06531 29.5653 2.68226C29.5953 2.65688 29.6355 2.63911 29.6956 2.60104C31.3632 4.01464 33.0131 5.42061 34.6681 6.81898C35.8742 7.8392 37.0904 8.85181 38.2915 9.87965C38.3993 9.97355 38.4946 10.1563 38.4946 10.2984C38.5021 14.5595 38.4971 18.818 38.4946 23.0791C38.4946 23.5334 38.4971 23.5384 38.0357 23.541C36.7017 23.5461 35.3677 23.541 34.0337 23.5537C33.7829 23.5562 33.7729 23.4369 33.7729 23.244C33.7779 20.7443 33.7779 18.2445 33.7729 15.7472C33.7729 15.5264 33.7654 15.3031 33.7378 15.0848C33.6776 14.6077 33.3441 14.2879 32.8702 14.2346C32.8276 14.2295 32.7874 14.2245 32.7448 14.2245C30.6711 14.2245 28.5973 14.2143 26.5261 14.227C25.9694 14.2321 25.6485 14.562 25.5758 15.1229C25.5507 15.3107 25.5532 15.501 25.5532 15.6914C25.5507 18.1912 25.5457 20.691 25.5532 23.1882C25.5532 23.4547 25.5005 23.5511 25.2122 23.5486C23.8481 23.5334 22.4814 23.541 21.1173 23.5486C20.9243 23.5486 20.8139 23.5283 20.8164 23.2796C20.829 18.988 20.8315 14.6965 20.829 10.405L20.8315 10.3999Z" fill="white"/>
</svg>
