<svg width="25" height="25" viewBox="0 0 25 25" fill="none" xmlns="http://www.w3.org/2000/svg">
<g id="Icons">
<g id="Icon">
<path d="M18.1569 17.0885C17.2202 18.0251 15.2616 19.9838 13.9138 21.3316C13.1327 22.1126 11.8677 22.113 11.0866 21.332C9.76234 20.0077 7.84159 18.0869 6.84315 17.0885C3.71895 13.9643 3.71895 8.89898 6.84315 5.77479C9.96734 2.65059 15.0327 2.65059 18.1569 5.77479C21.281 8.89898 21.281 13.9643 18.1569 17.0885Z" stroke="#546455" stroke-width="1.5" stroke-linecap="round" stroke-linejoin="round"/>
<path d="M15.5 11.4316C15.5 13.0885 14.1569 14.4316 12.5 14.4316C10.8431 14.4316 9.5 13.0885 9.5 11.4316C9.5 9.77479 10.8431 8.43164 12.5 8.43164C14.1569 8.43164 15.5 9.77479 15.5 11.4316Z" stroke="#546455" stroke-width="1.5" stroke-linecap="round" stroke-linejoin="round"/>
</g>
</g>
</svg>
