<svg width="25" height="25" viewBox="0 0 25 25" fill="none" xmlns="http://www.w3.org/2000/svg">
<g id="Icons">
<path id="Icon" d="M9.72792 4.11541L9.01641 4.35258V4.35258L9.72792 4.11541ZM11.2257 8.60885L10.5142 8.84602V8.84602L11.2257 8.60885ZM10.7243 9.81951L11.0597 10.4903H11.0597L10.7243 9.81951ZM8.46701 10.9481L8.1316 10.2773C7.77157 10.4573 7.61784 10.8895 7.78329 11.2564L8.46701 10.9481ZM13.9835 16.4646L13.6752 17.1484C14.0422 17.3138 14.4743 17.1601 14.6543 16.8L13.9835 16.4646ZM15.1121 14.2074L14.4413 13.872L15.1121 14.2074ZM16.3228 13.7059L16.0856 14.4174L16.0856 14.4174L16.3228 13.7059ZM20.8162 15.2037L21.0534 14.4922L20.8162 15.2037ZM5.5 2.68164C3.98122 2.68164 2.75 3.91286 2.75 5.43164H4.25C4.25 4.74128 4.80964 4.18164 5.5 4.18164V2.68164ZM8.77924 2.68164H5.5V4.18164H8.77924V2.68164ZM10.4394 3.87824C10.2012 3.16364 9.53249 2.68164 8.77924 2.68164V4.18164C8.88685 4.18164 8.98238 4.2505 9.01641 4.35258L10.4394 3.87824ZM11.9372 8.37168L10.4394 3.87824L9.01641 4.35258L10.5142 8.84602L11.9372 8.37168ZM11.0597 10.4903C11.8386 10.1009 12.2126 9.19788 11.9372 8.37168L10.5142 8.84602C10.5536 8.96405 10.5001 9.09305 10.3889 9.14869L11.0597 10.4903ZM8.80242 11.619L11.0597 10.4903L10.3889 9.14869L8.1316 10.2773L8.80242 11.619ZM14.2918 15.7809C12.0138 14.7539 10.1778 12.9178 9.15073 10.6399L7.78329 11.2564C8.96071 13.8679 11.0638 15.9709 13.6752 17.1484L14.2918 15.7809ZM14.4413 13.872L13.3127 16.1292L14.6543 16.8L15.783 14.5428L14.4413 13.872ZM16.56 12.9944C15.7338 12.719 14.8308 13.093 14.4413 13.872L15.783 14.5428C15.8386 14.4315 15.9676 14.3781 16.0856 14.4174L16.56 12.9944ZM21.0534 14.4922L16.56 12.9944L16.0856 14.4174L20.5791 15.9152L21.0534 14.4922ZM22.25 16.1524C22.25 15.3991 21.768 14.7304 21.0534 14.4922L20.5791 15.9152C20.6811 15.9493 20.75 16.0448 20.75 16.1524H22.25ZM22.25 19.4316V16.1524H20.75V19.4316H22.25ZM19.5 22.1816C21.0188 22.1816 22.25 20.9504 22.25 19.4316H20.75C20.75 20.122 20.1904 20.6816 19.5 20.6816V22.1816ZM18.5 22.1816H19.5V20.6816H18.5V22.1816ZM2.75 6.43164C2.75 15.1301 9.80152 22.1816 18.5 22.1816V20.6816C10.6299 20.6816 4.25 14.3017 4.25 6.43164H2.75ZM2.75 5.43164V6.43164H4.25V5.43164H2.75Z" fill="#546455"/>
</g>
</svg>
