<svg width="30" height="31" viewBox="0 0 30 31" fill="none" xmlns="http://www.w3.org/2000/svg">
<g id="Icons">
<path id="Icon" d="M11.4779 5.05804L10.7664 5.29521V5.29521L11.4779 5.05804ZM13.4757 11.0515L14.1873 10.8143V10.8143L13.4757 11.0515ZM12.9743 12.2621L12.6389 11.5913L12.9743 12.2621ZM9.95876 13.7699L9.62335 13.0991C9.26332 13.2791 9.10959 13.7112 9.27504 14.0782L9.95876 13.7699ZM16.8544 20.6655L16.5461 21.3492C16.9131 21.5147 17.3452 21.3609 17.5252 21.0009L16.8544 20.6655ZM18.3621 17.65L17.6913 17.3146V17.3146L18.3621 17.65ZM19.5728 17.1485L19.81 16.437L19.5728 17.1485ZM25.5662 19.1463L25.8034 18.4348L25.5662 19.1463ZM5.75 3.62427C4.23122 3.62427 3 4.85548 3 6.37427H4.5C4.5 5.68391 5.05964 5.12427 5.75 5.12427V3.62427ZM10.5292 3.62427H5.75V5.12427H10.5292V3.62427ZM12.1894 4.82087C11.9512 4.10627 11.2825 3.62427 10.5292 3.62427V5.12427C10.6368 5.12427 10.7324 5.19313 10.7664 5.29521L12.1894 4.82087ZM14.1873 10.8143L12.1894 4.82087L10.7664 5.29521L12.7642 11.2887L14.1873 10.8143ZM13.3097 12.933C14.0886 12.5435 14.4626 11.6405 14.1873 10.8143L12.7642 11.2887C12.8036 11.4067 12.7501 11.5357 12.6389 11.5913L13.3097 12.933ZM10.2942 14.4407L13.3097 12.933L12.6389 11.5913L9.62335 13.0991L10.2942 14.4407ZM17.1626 19.9818C14.2735 18.6792 11.9451 16.3508 10.6425 13.4616L9.27504 14.0782C10.728 17.3008 13.3235 19.8962 16.5461 21.3492L17.1626 19.9818ZM17.6913 17.3146L16.1836 20.3301L17.5252 21.0009L19.033 17.9854L17.6913 17.3146ZM19.81 16.437C18.9838 16.1616 18.0808 16.5356 17.6913 17.3146L19.033 17.9854C19.0886 17.8741 19.2176 17.8207 19.3356 17.86L19.81 16.437ZM25.8034 18.4348L19.81 16.437L19.3356 17.86L25.3291 19.8579L25.8034 18.4348ZM27 20.095C27 19.3418 26.518 18.673 25.8034 18.4348L25.3291 19.8579C25.4311 19.8919 25.5 19.9874 25.5 20.095H27ZM27 24.8743V20.095H25.5V24.8743H27ZM24.25 27.6243C25.7688 27.6243 27 26.3931 27 24.8743H25.5C25.5 25.5646 24.9404 26.1243 24.25 26.1243V27.6243ZM22.5 27.6243H24.25V26.1243H22.5V27.6243ZM3 8.12427C3 18.8938 11.7304 27.6243 22.5 27.6243V26.1243C12.5589 26.1243 4.5 18.0654 4.5 8.12427H3ZM3 6.37427V8.12427H4.5V6.37427H3Z" fill="white"/>
</g>
</svg>
