<svg width="53" height="61" viewBox="0 0 53 61" fill="none" xmlns="http://www.w3.org/2000/svg">
<g clip-path="url(#clip0_493_3675)">
<path d="M3.43427 60.4315C2.96496 60.1169 2.6238 59.7335 2.85845 59.156C3.08146 58.6051 3.59237 58.5346 4.14655 58.5534C4.66246 58.5706 5.17837 58.5566 5.73754 58.5566V35.6455C4.99197 35.669 4.21978 35.8224 3.50417 35.6894C1.76007 35.367 0.327185 33.2385 0.678334 31.6703C0.841427 30.9441 1.29243 30.412 1.88655 29.9503C7.31022 25.734 12.7306 21.513 18.1526 17.2936C19.1278 16.5345 20.093 15.7629 21.0783 15.0148C23.9357 12.8456 27.5454 12.8644 30.3912 15.0571C31.7858 16.1307 33.1704 17.2137 34.6416 18.3562V16.4328C34.4535 16.3436 34.1556 16.295 34.0691 16.1432C33.8977 15.8412 33.7213 15.464 33.7679 15.1478C33.8344 14.7034 34.2588 14.503 34.7481 14.5015C35.8065 14.5015 36.8666 14.5015 37.9251 14.5015C38.1498 14.5015 38.3744 14.5015 38.6374 14.5015V11.689C38.3844 11.689 38.1248 11.6984 37.8668 11.6875C36.3158 11.6171 34.7281 11.7188 33.2237 11.4308C29.4825 10.7171 26.8048 7.53536 26.7216 3.95448C26.7016 3.1156 26.705 2.27516 26.7216 1.43629C26.7316 0.850952 27.0678 0.45812 27.6419 0.456555C29.5092 0.45186 31.3897 0.368911 33.242 0.537938C36.0795 0.796175 38.1547 2.27516 39.6442 4.59772C39.7507 4.46156 39.8472 4.35201 39.9288 4.23306C41.6346 1.77904 44.0444 0.500377 47.1631 0.445599C48.5744 0.420558 49.9873 0.437774 51.3986 0.442469C52.2523 0.445599 52.66 0.782089 52.6217 1.57558C52.5502 3.01231 52.6168 4.49286 52.2573 5.87012C51.3569 9.30545 48.0019 11.6484 44.2374 11.6859C43.0775 11.6984 41.9175 11.6875 40.7143 11.6875V14.5015C41.9891 14.5015 43.2506 14.4936 44.5104 14.5046C45.2959 14.5109 45.8384 15.0602 45.5821 15.6502C45.4357 15.9867 45.0596 16.2356 44.6585 16.6597C44.6585 19.5911 44.6518 22.7337 44.6735 25.8748C44.6735 26.0642 44.8532 26.3005 45.0213 26.4335C46.4974 27.6027 47.9902 28.7561 49.4797 29.9111C51.0807 31.1522 51.2504 32.7345 49.954 34.2683C49.3499 34.9835 48.7042 35.68 47.6691 35.7535C47.0283 35.7989 46.3743 35.6643 45.6936 35.608V58.5581C46.2412 58.5581 46.7754 58.5706 47.3079 58.555C47.8971 58.5378 48.3963 58.652 48.5827 59.253C48.7641 59.8352 48.3897 60.1639 47.9187 60.4331H3.43427V60.4315ZM10.7651 58.5284V57.7584C10.7651 52.8581 10.8217 47.9564 10.7385 43.0577C10.7019 40.912 12.3212 39.7194 14.1934 39.7883C16.5366 39.8759 18.8848 39.8086 21.2314 39.8102C23.5596 39.8102 24.7196 40.8963 24.7196 43.0765C24.7196 47.997 24.7196 52.9161 24.7196 57.8366C24.7196 58.062 24.7196 58.2889 24.7196 58.508H43.6616V58.0542C43.6616 50.1662 43.6583 42.2799 43.6716 34.3919C43.6716 34.0116 43.5218 33.7909 43.2289 33.5624C37.7237 29.2867 32.2252 25.0015 26.7249 20.7195C25.8396 20.0309 25.5683 20.0356 24.6829 20.7257C19.1977 24.9952 13.7158 29.2679 8.22055 33.5264C7.87938 33.7909 7.76289 34.0601 7.76289 34.467C7.77454 42.2767 7.77121 50.0864 7.77121 57.8945V58.53H10.7618L10.7651 58.5284ZM22.6859 58.5409C22.7042 58.4157 22.7242 58.3406 22.7242 58.2655C22.7258 53.1101 22.7308 47.9548 22.7242 42.7995C22.7242 42.0154 22.3381 41.6867 21.4727 41.6851C19.0213 41.682 16.5716 41.6836 14.1202 41.6851C13.0551 41.6851 12.7589 41.9653 12.7589 42.9732C12.7589 47.972 12.7589 52.9708 12.7589 57.9697C12.7589 58.1559 12.7805 58.3421 12.7921 58.5393H22.6859V58.5409ZM48.8739 32.1398C48.7009 31.9269 48.5378 31.628 48.2865 31.4308C41.8493 26.4069 35.4155 21.3784 28.9516 16.3842C26.9429 14.8317 24.3368 14.9131 22.3198 16.4828C16.0507 21.3612 9.78324 26.241 3.51582 31.1209C2.31925 32.0521 2.29928 32.3792 3.35439 33.4748C3.39599 33.5186 3.43594 33.564 3.48087 33.6047C3.92189 34.0085 4.37122 34.0445 4.87714 33.7033C5.07851 33.5671 5.2649 33.4106 5.45795 33.2604C11.4541 28.5933 17.4503 23.9247 23.4481 19.2593C25.0591 18.0057 26.3738 18.0057 27.9631 19.2452C34.0541 23.9889 40.1468 28.7311 46.2362 33.4764C46.6489 33.7988 47.0882 34.1478 47.6225 33.8144C48.2099 33.4482 48.6742 32.9474 48.8723 32.1413L48.8739 32.1398ZM50.5631 2.31899C49.3749 2.31899 48.175 2.29864 46.9767 2.32368C44.2325 2.37846 41.7628 4.11255 40.9756 6.5744C40.7692 7.22078 40.726 7.91254 40.6095 8.58395C40.9307 8.52604 41.0788 8.42588 41.2186 8.31632C42.4634 7.34285 43.6999 6.35999 44.9514 5.39591C45.459 5.00464 46.0165 5.0469 46.3926 5.45538C46.7704 5.86543 46.7205 6.38973 46.2445 6.80603C45.9716 7.04549 45.6737 7.25834 45.3874 7.48371C44.4421 8.22712 43.4985 8.97209 42.5 9.75619C48.0834 10.3885 51.2088 6.58536 50.5631 2.31742V2.31899ZM28.7702 2.20787C28.1129 7.57135 32.3633 10.4245 36.7918 9.72019C35.5885 8.77645 34.4103 7.85619 33.2387 6.9328C32.6479 6.46798 32.5347 5.90768 32.9275 5.46634C33.3319 5.01247 33.8994 5.01716 34.5151 5.49451C35.3788 6.16436 36.2359 6.84516 37.0963 7.51814C37.5823 7.89845 38.0732 8.27563 38.6008 8.68412C38.6424 8.55265 38.6707 8.50257 38.6723 8.45092C38.7289 5.7637 36.7352 3.14534 33.9177 2.58348C32.2601 2.25169 30.5127 2.32055 28.7719 2.2063L28.7702 2.20787ZM36.6836 16.3905C36.6836 17.4501 36.657 18.4611 36.7019 19.469C36.7135 19.7351 36.87 20.0731 37.083 20.2437C38.7405 21.5724 40.4264 22.8699 42.1073 24.1736C42.257 24.2894 42.4218 24.388 42.6182 24.5195V16.3905H36.6836Z" fill="#546455"/>
<path d="M34.1622 51.0585C33.0422 51.0585 31.9205 51.0647 30.8005 51.0569C29.0015 51.0428 27.7334 49.8753 27.7167 48.1959C27.7001 46.3429 27.6984 44.4883 27.7167 42.6353C27.735 41.017 28.9998 39.8275 30.714 39.815C33.0172 39.7994 35.3205 39.8009 37.6238 39.815C39.3379 39.826 40.6227 40.9904 40.6576 42.6133C40.6976 44.4852 40.6943 46.3601 40.6576 48.2335C40.626 49.8831 39.3379 51.0412 37.5838 51.0569C36.4422 51.0678 35.3005 51.0585 34.1589 51.0585H34.1622ZM33.1504 44.482V41.6884C32.3 41.6884 31.4928 41.6774 30.6873 41.6931C30.1981 41.7025 29.8003 41.9466 29.7537 42.3974C29.6838 43.0813 29.7354 43.7778 29.7354 44.482H33.152H33.1504ZM33.177 46.4149H29.7105C29.7105 47.0597 29.7038 47.6623 29.7121 48.2648C29.7204 48.7359 29.995 49.1037 30.4643 49.1381C31.3597 49.2023 32.2634 49.1569 33.1753 49.1569V46.4149H33.177ZM35.2024 44.457H38.6722C38.6722 43.8169 38.6905 43.2159 38.6656 42.6165C38.6473 42.1626 38.381 41.7698 37.9117 41.7338C37.018 41.6665 36.1127 41.715 35.2024 41.715V44.457ZM38.6689 46.4071H35.234V49.1819C36.0811 49.1819 36.8865 49.2007 37.6887 49.1757C38.2678 49.1569 38.619 48.8204 38.6573 48.2914C38.7039 47.6763 38.6672 47.0566 38.6672 46.4071H38.6689Z" fill="#546455"/>
<path d="M18.7399 49.6452C18.7399 48.6842 19.0528 48.246 19.7335 48.2523C20.4058 48.2585 20.732 48.7202 20.732 49.6608C20.732 49.7 20.732 49.7391 20.732 49.7782C20.7254 50.5999 20.3609 51.06 19.7168 51.0553C19.0678 51.0506 18.7416 50.6202 18.7383 49.7626C18.7383 49.7234 18.7383 49.6843 18.7383 49.6452H18.7399Z" fill="#546455"/>
</g>
<defs>
<clipPath id="clip0_493_3675">
<rect width="52" height="60" fill="white" transform="translate(0.625 0.431641)"/>
</clipPath>
</defs>
</svg>
