<svg width="61" height="58" viewBox="0 0 61 58" fill="none" xmlns="http://www.w3.org/2000/svg">
<path d="M60.5795 17.2554C59.7231 15.8448 58.8621 14.4342 57.994 13.033C56.8671 11.216 55.7332 9.40609 54.5992 7.59616C54.4087 7.29256 54.2228 6.97961 53.9923 6.70871C53.6229 6.27199 53.0559 6.19258 52.5619 6.4775C52.3596 6.59427 52.162 6.72505 51.9855 6.87452C49.5812 8.8923 47.1816 10.9148 44.7796 12.9325C41.8553 15.3894 38.9287 17.8462 36.0021 20.3007C35.7057 20.5506 35.4069 20.8005 35.0988 21.0597C34.9788 20.9476 34.88 20.8542 34.7835 20.7608C33.2543 19.2871 31.7252 17.8135 30.196 16.3399C29.7961 15.9545 29.3867 15.5785 29.0009 15.1792C28.9162 15.0928 28.8456 14.9153 28.8739 14.8079C29.222 13.507 29.262 12.1969 28.9562 10.8914C28.848 10.4313 28.9421 10.1791 29.3255 9.88718C30.6712 8.86661 32.0287 7.87173 33.5602 7.13608C34.6471 6.61296 35.7622 6.15755 36.9902 6.15055C37.529 6.14588 38.0701 6.27899 38.6088 6.36073C39.0934 6.43313 39.5592 6.22528 39.811 5.81191C40.065 5.39621 40.0297 4.90345 39.7051 4.51343C39.5992 4.38732 39.4792 4.27055 39.3522 4.16313C37.0914 2.2878 34.5553 0.989323 31.6287 0.484877C29.302 0.083189 27.0765 0.403138 24.938 1.36532C23.5923 1.97019 22.3808 2.78291 21.2868 3.76611C21.068 3.96228 20.8445 4.03701 20.5457 4.02534C20.0988 4.00899 19.6424 4.01366 19.2001 4.07204C14.5843 4.66991 11.3001 8.48127 11.4483 12.9302C11.4531 13.0516 11.406 13.2175 11.3213 13.2945C10.3121 14.224 9.21811 15.0274 7.91008 15.5061C7.67953 15.5902 7.49367 15.5715 7.27724 15.4408C6.34797 14.8849 5.34578 14.6864 4.2683 14.8826C2.01924 15.2913 0.518298 17.4095 0.89471 19.6468C1.0641 20.651 1.61224 21.4357 2.32272 22.127C3.69192 23.4558 5.06582 24.7823 6.43972 26.1088C7.90302 27.5241 9.35456 28.9487 10.8367 30.3476C11.5636 31.0342 12.4482 31.4452 13.4645 31.4966C15.1113 31.583 16.4405 30.9524 17.3439 29.5956C18.2379 28.2551 18.2802 26.8188 17.4733 25.4152C17.2451 25.0159 17.2498 24.7099 17.4286 24.3176C17.9485 23.1756 18.7366 22.2297 19.5671 21.3143C19.6282 21.2489 19.76 21.2138 19.8564 21.2185C20.7716 21.2629 21.6679 21.1321 22.5595 20.9406C22.6748 20.9149 22.856 20.9616 22.9407 21.0434C23.8276 21.8911 24.7004 22.7552 25.5826 23.6076C26.5777 24.5698 27.5776 25.5227 28.6174 26.5222C28.1798 26.8819 27.7611 27.2135 27.3517 27.5568C25.1333 29.4181 22.9171 31.2771 20.7057 33.1454C20.5387 33.2878 20.4211 33.2785 20.2211 33.2108C19.6894 33.031 19.1483 32.8395 18.5955 32.7647C17.3651 32.5989 16.2147 32.9445 15.1042 33.4396C13.6645 34.0819 12.4129 35.0067 11.2084 36.0016C10.3803 36.6858 9.58982 37.4098 8.95933 38.2833C8.0677 39.5187 8.01359 40.7891 8.92404 41.9405C9.54041 42.7205 10.2768 43.4165 11.0061 44.0984C11.2931 44.367 11.693 44.5468 12.0694 44.6892C13.1493 45.0933 14.1891 44.8644 15.1819 44.3786C15.3889 44.2759 15.4854 44.3156 15.6242 44.4627C15.89 44.7476 16.17 45.0185 16.4523 45.2871C18.1226 46.8939 19.7953 48.5006 21.4703 50.105C21.642 50.2685 21.7009 50.3853 21.5644 50.6375C20.9033 51.8729 20.8116 53.1434 21.6467 54.3251C22.4396 55.4461 23.4771 56.3382 24.6933 57.0061C25.1191 57.2397 25.5755 57.3518 26.0743 57.298C26.9142 57.207 27.6246 56.8403 28.2575 56.3172C29.375 55.3947 30.3442 54.3274 31.2335 53.1924C32.1486 52.0201 32.9132 50.7659 33.3202 49.3203C33.6731 48.0732 33.6966 46.8565 33.092 45.6678C33.0544 45.593 33.0991 45.4249 33.1673 45.3548C33.5108 44.9952 33.8707 44.6519 34.226 44.3062C34.5953 43.9466 34.7694 43.5192 34.7576 43.0008C34.7412 42.195 34.7623 41.3893 34.7459 40.5836C34.7412 40.3407 34.8 40.2683 35.0494 40.273C35.9574 40.287 36.8679 40.294 37.7783 40.266C38.6206 40.2403 39.0652 39.7662 39.084 38.9348C39.0934 38.5168 39.0793 38.1011 39.077 37.6831C39.077 37.3795 39.077 37.0759 39.077 36.7723C39.1052 36.7653 39.1334 36.7559 39.164 36.7489C39.2346 36.8073 39.3099 36.8633 39.3757 36.9264C40.1027 37.6317 40.8273 38.3416 41.5542 39.0469C43.6409 41.0647 45.7136 43.0965 47.8215 45.0956C48.866 46.0858 50.1435 46.4875 51.5762 46.2026C53.15 45.8873 54.2675 44.9718 54.7968 43.4562C55.3215 41.9522 54.9968 40.5719 53.9287 39.4019C53.1359 38.5331 52.2796 37.7181 51.4327 36.8984C49.7741 35.2916 48.1038 33.6989 46.4382 32.1015C46.3676 32.0337 46.3041 31.9543 46.21 31.8492C46.3158 31.8399 46.3629 31.8329 46.4123 31.8306C47.311 31.8049 47.7744 31.3728 47.7979 30.49C47.8215 29.6376 47.805 28.7829 47.805 27.9281C47.805 27.837 47.805 27.7436 47.805 27.6362C48.4543 27.6362 49.0589 27.6432 49.6659 27.6339C50.1529 27.6268 50.6446 27.6292 51.1268 27.5685C51.6891 27.5007 52.0679 27.1154 52.1455 26.5596C52.1973 26.1976 52.1878 25.8263 52.1925 25.4573C52.1996 24.7893 52.1925 24.1238 52.1925 23.4231C52.3266 23.4231 52.4302 23.4231 52.5337 23.4231C53.4629 23.4138 54.3922 23.4278 55.3191 23.3834C56.0131 23.3507 56.4507 22.9164 56.4813 22.2297C56.5236 21.3096 56.5166 20.3871 56.5095 19.4646C56.5095 19.2288 56.5777 19.1704 56.8083 19.175C57.6976 19.1891 58.5892 19.1844 59.4785 19.1821C59.8502 19.1821 60.196 19.112 60.476 18.8411C60.9135 18.4184 60.9606 17.8696 60.5842 17.2507L60.5795 17.2554ZM14.0244 29.1589C13.3281 29.2476 12.7611 29.0141 12.2765 28.533C11.5636 27.8277 10.8508 27.1224 10.1309 26.4241C8.0183 24.3783 5.90334 22.3395 3.78837 20.296C3.27316 19.7986 3.04261 19.2148 3.25434 18.5048C3.46372 17.8018 3.94129 17.3721 4.64941 17.19C4.79057 17.1549 4.93878 17.1549 5.08464 17.1362C5.65161 17.1246 6.0986 17.3604 6.49383 17.7458C8.45117 19.6561 10.4132 21.5618 12.38 23.4628C13.2481 24.3036 14.1232 25.1326 14.9984 25.9664C15.4171 26.3657 15.6877 26.8328 15.6642 27.4283C15.6312 28.3298 14.9466 29.0398 14.0268 29.1565L14.0244 29.1589ZM24.6722 17.2133C23.2159 18.4908 21.5291 19.0186 19.6141 18.8341C18.9883 18.7734 18.5437 18.9882 18.1226 19.4389C17.1133 20.5156 16.17 21.6342 15.483 22.9467C15.4571 22.9958 15.4148 23.0355 15.3842 23.0752C13.4316 21.1858 11.486 19.3035 9.51689 17.3978C9.58982 17.3534 9.65569 17.3044 9.72627 17.2694C11.166 16.5524 12.38 15.5318 13.5657 14.4716C13.855 14.2123 13.9562 13.8737 13.8974 13.4954C13.7609 12.6313 13.7962 11.7742 14.0409 10.9311C14.8266 8.24073 17.2686 6.39576 20.087 6.36774C20.4587 6.36307 20.8304 6.37474 21.1998 6.40744C21.6326 6.44714 21.9761 6.31169 22.2843 6.01276C23.3877 4.93614 24.6251 4.04869 26.0508 3.43448C27.6293 2.75255 29.2761 2.56571 30.9818 2.75255C32.3298 2.89968 33.5908 3.3037 34.7976 3.9039C34.88 3.9436 34.9576 3.99498 34.9952 4.01833C34.0072 4.44804 32.9979 4.83338 32.0381 5.31681C30.1113 6.29067 28.4151 7.60316 26.7777 8.99039C26.3237 9.37573 26.2154 9.85215 26.3989 10.408C26.646 11.1576 26.8106 11.9213 26.7871 12.7177C26.7354 14.5206 26.0437 16.0106 24.6745 17.2133H24.6722ZM25.138 19.8523C26.1613 19.1564 27.0624 18.3156 27.7681 17.2437C29.5961 19.0349 31.4005 20.8028 33.2473 22.6128C32.2921 23.4115 31.3535 24.1938 30.4007 24.9925C28.6457 23.2783 26.9095 21.5805 25.138 19.8523ZM31.0876 48.4562C30.8665 49.5632 30.3254 50.5301 29.6549 51.4199C28.775 52.5876 27.7893 53.6642 26.6789 54.6217C26.1825 55.0491 25.8226 55.0888 25.3168 54.6847C24.7851 54.2597 24.2769 53.802 23.797 53.3185C23.3194 52.8374 23.303 52.2302 23.6911 51.6464C23.8299 51.4362 23.9946 51.2424 24.1428 51.0392C24.611 50.4063 24.5757 49.8808 24.0158 49.3297C23.0865 48.4142 22.1526 47.5034 21.2162 46.5949C19.7482 45.1703 18.2779 43.7481 16.8075 42.3282C16.6264 42.153 16.4382 41.9802 16.2311 41.8331C15.7489 41.4921 15.3089 41.5038 14.8219 41.8401C14.5726 42.0106 14.3326 42.195 14.0691 42.3398C13.401 42.7065 12.794 42.6411 12.2412 42.1226C11.8083 41.7163 11.3895 41.2912 11.0037 40.8428C10.5144 40.2753 10.5073 39.9951 11.0296 39.4276C12.1329 38.2249 13.361 37.1623 14.742 36.2795C15.4007 35.8591 16.0923 35.4971 16.8569 35.3033C17.2804 35.1959 17.7156 35.1351 18.1461 35.0534C18.7366 35.0838 19.2189 35.2566 19.6494 35.6863C21.4397 37.4612 23.2559 39.2127 25.0697 40.9666C26.8201 42.6598 28.5445 44.3786 30.3419 46.0204C31.1182 46.7304 31.2758 47.5197 31.09 48.4586L31.0876 48.4562ZM51.8702 40.663C52.2161 40.9993 52.536 41.3473 52.6113 41.8494C52.7266 42.6201 52.4537 43.232 51.8114 43.6523C51.1692 44.075 50.4681 44.0984 49.8235 43.685C49.4095 43.4188 49.0566 43.0568 48.699 42.7135C46.4452 40.5463 44.1985 38.372 41.9494 36.2001C41.9306 36.1814 41.9189 36.1534 41.8742 36.0833C42.053 36.0623 42.1965 36.0459 42.34 36.0296C42.9963 35.9479 43.4269 35.4995 43.4457 34.8456C43.4645 34.1753 43.4574 33.5074 43.4645 32.8371C43.4645 32.7624 43.4739 32.69 43.4833 32.5709C43.5727 32.6456 43.6315 32.6877 43.6833 32.7367C46.4123 35.3804 49.1389 38.024 51.8702 40.6654V40.663ZM55.8884 16.8186C55.6155 16.8233 55.3379 16.8233 55.0721 16.8723C54.5522 16.9681 54.1993 17.3254 54.1758 17.8439C54.1334 18.8014 54.1287 19.7636 54.1311 20.7234C54.1311 20.9803 54.0675 21.0574 53.8064 21.0527C52.9265 21.0364 52.0467 21.027 51.1668 21.0457C50.2634 21.0644 49.807 21.5361 49.7812 22.4283C49.7765 22.5637 49.7765 22.6992 49.7765 22.8346C49.7765 23.6286 49.7765 24.4227 49.7765 25.2634C49.5577 25.2634 49.3671 25.2634 49.1742 25.2634C48.4402 25.2634 47.7085 25.2634 46.9745 25.2588C45.8524 25.2541 45.3819 25.7142 45.3795 26.8211C45.3795 27.6852 45.3771 28.547 45.3748 29.4111C45.3748 29.4298 45.363 29.4461 45.3489 29.4858C44.8902 29.4858 44.4244 29.4858 43.9585 29.4858C43.441 29.4858 42.9211 29.4788 42.4035 29.4998C41.5048 29.5349 41.0578 29.9996 41.0484 30.9081C41.039 31.8189 41.0484 32.732 41.0484 33.6825C40.9684 33.6872 40.8673 33.6965 40.7638 33.6965C39.9709 33.6965 39.1805 33.6965 38.3877 33.6965C38.3006 33.6965 38.2112 33.6965 38.1242 33.6989C37.1808 33.7432 36.7032 34.236 36.6962 35.1842C36.6891 35.9806 36.6962 36.7746 36.6962 37.571C36.6962 37.6667 36.6962 37.7601 36.6962 37.8956C36.4327 37.8956 36.1927 37.8932 35.9527 37.8956C35.1223 37.9073 34.2895 37.8909 33.4637 37.947C32.845 37.989 32.4427 38.3977 32.4121 39.0026C32.3627 39.9601 32.3274 40.9246 32.3815 41.8798C32.4192 42.5804 32.2545 43.1082 31.6734 43.5309C31.3017 43.8018 31.3935 43.7878 31.1041 43.5075C28.2081 40.7027 25.3121 37.8979 22.416 35.0908C22.376 35.0511 22.3455 35.002 22.2914 34.932C32.478 26.3727 42.6576 17.8229 52.8701 9.24261C54.4228 11.7672 55.9567 14.2614 57.5258 16.814C56.9377 16.814 56.4154 16.8093 55.8931 16.814L55.8884 16.8186Z" fill="white"/>
</svg>
