<svg width="70" height="70" viewBox="0 0 70 70" fill="none" xmlns="http://www.w3.org/2000/svg">
<path d="M65.6619 53.8449H2.60596V65.0002H65.6619V53.8449Z" stroke="#333333" stroke-width="2" stroke-linecap="round" stroke-linejoin="round"/>
<path d="M33.1031 53.8449C32.937 55.0261 33.1242 56.2811 33.4564 57.4412C33.9573 59.1866 34.7615 60.8423 35.1306 62.6194C35.2941 63.4024 35.3653 64.2013 35.3495 65.0002" stroke="#333333" stroke-width="2" stroke-linecap="round" stroke-linejoin="round"/>
<path d="M8.22168 53.8449C8.77799 56.6449 10.9321 59.1497 13.711 59.9116C15.1559 60.3098 16.6877 60.2755 18.1563 60.5708C20.7928 61.0954 23.1499 62.7644 24.6369 64.9976" stroke="#333333" stroke-width="2" stroke-linecap="round" stroke-linejoin="round"/>
<path d="M45.1865 53.8449C45.2076 54.2536 45.2998 54.6596 45.4633 55.0314C45.9801 56.2125 47.0532 57.0641 48.2001 57.6547C49.3496 58.2427 50.5915 58.6118 51.7726 59.1338C54.1376 60.1779 56.1994 61.8601 57.7523 63.9271" stroke="#333333" stroke-width="2" stroke-linecap="round" stroke-linejoin="round"/>
<path d="M39.2856 23.9884L66.5213 40.2033C67.3676 40.7095 67.647 41.8089 67.1434 42.6579L65.8674 44.8014C65.3612 45.6504 64.2643 45.9299 63.4127 45.4236L32.6704 27.118" stroke="#333333" stroke-width="2" stroke-linecap="round" stroke-linejoin="round"/>
<path d="M20.9326 24.6635L22.2008 22.5331L20.6821 21.6288C20.1759 21.3256 20.0098 20.6717 20.3104 20.1629L24.194 13.64C24.956 12.3586 25.8814 11.1827 26.9439 10.136C29.8573 7.27272 33.6883 5.52995 37.7618 5.21356L40.5065 5L36.6939 8.96275C33.6118 12.1662 33.5828 17.2257 36.6307 20.4608L31.9455 28.3309L30.121 27.2447C28.7474 26.4273 26.9729 26.8782 26.1556 28.2492L25.0694 30.0737" stroke="#333333" stroke-width="2" stroke-linecap="round" stroke-linejoin="round"/>
<path d="M25.8174 32.8939L24.068 35.8321L15.0743 30.4772L16.8238 27.539C17.3984 26.5739 18.6476 26.259 19.6104 26.8323L25.1108 30.1073C26.0759 30.6819 26.3907 31.9311 25.8174 32.8939Z" stroke="#333333" stroke-width="2" stroke-linecap="round" stroke-linejoin="round"/>
<path d="M19.335 53.5838V49.6158C19.335 48.5586 19.7489 47.5461 20.4845 46.7894L22.2536 44.9728H12.8438L14.6129 46.7894C15.3511 47.5461 15.7624 48.5612 15.7624 49.6158V53.5838" stroke="#333333" stroke-width="2" stroke-linecap="round" stroke-linejoin="round"/>
</svg>
