<svg width="70" height="70" viewBox="0 0 70 70" fill="none" xmlns="http://www.w3.org/2000/svg">
<path d="M56.1301 29.1304C61.9651 29.1304 66.6953 27.0281 66.6953 24.4348C66.6953 21.8414 61.9651 19.7391 56.1301 19.7391C50.2951 19.7391 45.5649 21.8414 45.5649 24.4348C45.5649 27.0281 50.2951 29.1304 56.1301 29.1304Z" stroke="#333333" stroke-width="2" stroke-linecap="round" stroke-linejoin="round"/>
<path d="M66.6953 31.4781C66.6953 34.0725 61.9645 36.1738 56.1301 36.1738C50.2958 36.1738 45.5649 34.0725 45.5649 31.4781" stroke="#333333" stroke-width="2" stroke-linecap="round" stroke-linejoin="round"/>
<path d="M54.9565 43.1939C55.3322 43.2174 55.7313 43.2174 56.1305 43.2174C61.9765 43.2174 66.6956 41.1043 66.6956 38.5217" stroke="#333333" stroke-width="2" stroke-linecap="round" stroke-linejoin="round"/>
<path d="M45.5649 24.4348V31.4782V34.9999" stroke="#333333" stroke-width="2" stroke-linecap="round" stroke-linejoin="round"/>
<path d="M54.9565 50.2373C55.3322 50.2608 55.7313 50.2608 56.1305 50.2608C61.9765 50.2608 66.6956 48.1477 66.6956 45.5651V24.4348" stroke="#333333" stroke-width="2" stroke-linecap="round" stroke-linejoin="round"/>
<path d="M46.0347 46.9746V46.9503" stroke="#333333" stroke-width="2" stroke-linecap="round" stroke-linejoin="round"/>
<path d="M39.6956 47.913C45.5306 47.913 50.2607 45.8107 50.2607 43.2174C50.2607 40.624 45.5306 38.5217 39.6956 38.5217C33.8606 38.5217 29.1304 40.624 29.1304 43.2174C29.1304 45.8107 33.8606 47.913 39.6956 47.913Z" stroke="#333333" stroke-width="2" stroke-linecap="round" stroke-linejoin="round"/>
<path d="M50.2607 50.2608C50.2607 52.8551 45.5299 54.9564 39.6956 54.9564C33.8612 54.9564 29.1304 52.8551 29.1304 50.2608" stroke="#333333" stroke-width="2" stroke-linecap="round" stroke-linejoin="round"/>
<path d="M50.2607 43.2173V57.3043C50.2607 59.8869 45.5416 61.9999 39.6956 61.9999C33.8495 61.9999 29.1304 59.8869 29.1304 57.3043V43.2173" stroke="#333333" stroke-width="2" stroke-linecap="round" stroke-linejoin="round"/>
<path d="M24.4346 43.2173H6.82593C4.87724 43.2173 3.3042 41.6443 3.3042 39.6956V11.5217C3.3042 9.57304 4.87724 8 6.82593 8H53.7823C55.731 8 57.3041 9.57304 57.3041 11.5217V16.2408" stroke="#333333" stroke-width="2" stroke-linecap="round" stroke-linejoin="round"/>
<path d="M3.3042 15.0435H57.3041" stroke="#333333" stroke-width="2" stroke-linecap="round" stroke-linejoin="round"/>
<path d="M3.3042 22.0869H42.0432" stroke="#333333" stroke-width="2" stroke-linecap="round" stroke-linejoin="round"/>
<path d="M10.3477 31.4781H24.4346" stroke="#333333" stroke-width="2" stroke-linecap="round" stroke-linejoin="round"/>
</svg>
