<svg width="70" height="70" viewBox="0 0 70 70" fill="none" xmlns="http://www.w3.org/2000/svg">
<g clip-path="url(#clip0_521_3720)">
<path d="M51.6071 68.2142H1.78564V17.8571H46.7856" stroke="#333333" stroke-width="2" stroke-linecap="round" stroke-linejoin="round"/>
<path d="M68.2143 57.4999V12.4999C68.2143 6.58297 63.417 1.78564 57.5 1.78564H53.2143V46.7856H57.5C63.417 46.7856 68.2143 51.583 68.2143 57.4999ZM68.2143 57.4999C68.2143 63.4169 63.417 68.2142 57.5 68.2142H50" stroke="#333333" stroke-width="2" stroke-linecap="round" stroke-linejoin="round"/>
<path d="M17.8571 34.9999H12.5V57.4999H54.3929C56.383 57.4999 58.2902 56.7097 59.6964 55.3035L60.7143 54.2856" stroke="#333333" stroke-width="2" stroke-linecap="round" stroke-linejoin="round"/>
<path d="M46.7855 28.5714H30.7141V34.9999H25.3569" stroke="#333333" stroke-width="2" stroke-linecap="round" stroke-linejoin="round"/>
<path d="M30.7144 46.7856V57.4999" stroke="#333333" stroke-width="2" stroke-linecap="round" stroke-linejoin="round"/>
<path d="M38.2144 39.2856H46.7858" stroke="#333333" stroke-width="2" stroke-linecap="round" stroke-linejoin="round"/>
<path d="M12.5 46.7856H24.2857" stroke="#333333" stroke-width="2" stroke-linecap="round" stroke-linejoin="round"/>
<path d="M30.7144 34.9999V39.2856" stroke="#333333" stroke-width="2" stroke-linecap="round" stroke-linejoin="round"/>
</g>
<defs>
<clipPath id="clip0_521_3720">
<rect width="70" height="70" fill="white"/>
</clipPath>
</defs>
</svg>
