<svg width="70" height="70" viewBox="0 0 70 70" fill="none" xmlns="http://www.w3.org/2000/svg">
<g clip-path="url(#clip0_521_3812)">
<path d="M56.0812 38.4212L48.9294 32.8578V18.9292H39.2865V25.3578L29.6437 18.9292L2.97314 37.698" stroke="#333333" stroke-width="2" stroke-linecap="round" stroke-linejoin="round"/>
<path d="M37.1436 50.0007V43.5721H22.1436V50.0007" stroke="#333333" stroke-width="2" stroke-linecap="round" stroke-linejoin="round"/>
<path d="M53.7669 43.5721C48.9508 51.8971 39.9535 57.5007 29.6437 57.5007C19.3339 57.5007 11.0035 52.3069 6.07227 44.4881" stroke="#333333" stroke-width="2" stroke-linecap="round" stroke-linejoin="round"/>
<path d="M56.0813 38.4212C56.9973 35.6596 57.5009 32.7132 57.5009 29.6435C57.5009 14.2578 45.0295 1.78641 29.6438 1.78641C14.258 1.78641 1.78662 14.2578 1.78662 29.6435C1.78662 32.4453 2.20448 35.148 2.97323 37.698" stroke="#333333" stroke-width="2" stroke-linecap="round" stroke-linejoin="round"/>
<path d="M52.1246 46.0632L66.9639 60.9024C68.63 62.5685 68.63 65.298 66.9639 66.9641C65.2978 68.6301 62.571 68.6301 60.9023 66.9641L46.063 52.1248" stroke="#333333" stroke-width="2" stroke-linecap="round" stroke-linejoin="round"/>
</g>
<defs>
<clipPath id="clip0_521_3812">
<rect width="70" height="70" fill="white"/>
</clipPath>
</defs>
</svg>
