<svg width="70" height="70" viewBox="0 0 70 70" fill="none" xmlns="http://www.w3.org/2000/svg">
<path d="M33.7392 59.5372C38.7692 58.7207 42.1849 53.9812 41.3684 48.9512C40.5519 43.9212 35.8124 40.5055 30.7824 41.322C25.7524 42.1385 22.3367 46.878 23.1532 51.908C23.9697 56.938 28.7092 60.3537 33.7392 59.5372Z" stroke="#333333" stroke-width="2" stroke-miterlimit="10"/>
<path d="M38.4993 57.2244V66.4243L32.2585 63.5908L26.0176 66.4243V57.2244" stroke="#333333" stroke-width="2" stroke-miterlimit="10"/>
<path d="M36.0068 50.4321C36.0068 52.499 34.33 54.1757 32.2632 54.1757C30.1963 54.1757 28.5195 52.499 28.5195 50.4321C28.5195 48.3653 30.1963 46.6885 32.2632 46.6885C34.33 46.6885 36.0068 48.3653 36.0068 50.4321Z" stroke="#333333" stroke-width="2" stroke-miterlimit="10"/>
<path d="M11.9531 15.8339V50.4098C11.9531 54.5614 15.3157 57.9239 19.4673 57.9239H21.5565" stroke="#333333" stroke-width="2" stroke-miterlimit="10" stroke-linecap="round"/>
<path d="M60.4857 57.9239H43.543" stroke="#333333" stroke-width="2" stroke-miterlimit="10"/>
<path d="M45.4575 3.57593H9.51416C5.36703 3.57593 2 6.94295 2 11.0901H37.9433C37.9433 6.93847 41.3059 3.57593 45.4575 3.57593ZM45.4575 3.57593C49.6091 3.57593 52.9717 6.93847 52.9717 11.0901V50.4094C52.9717 54.5611 56.3342 57.9236 60.4858 57.9236C64.6375 57.9236 68 54.5611 68 50.4094V47.9794H57.8406" stroke="#333333" stroke-width="2" stroke-miterlimit="10" stroke-linejoin="round"/>
<path d="M22.3906 25.4684H42.5345" stroke="#333333" stroke-width="2" stroke-miterlimit="10"/>
<path d="M22.3906 33.8885H42.5345" stroke="#333333" stroke-width="2" stroke-miterlimit="10"/>
</svg>
