<svg width="1440" height="313" viewBox="0 0 1440 313" fill="none" xmlns="http://www.w3.org/2000/svg">
<path opacity="0.08" d="M630 -756L-261 133.702V1039H1521V133.702L630 -756ZM-185.783 590.882L843.348 -436.749L1003.47 -276.863L-185.696 910.655V590.882H-185.783ZM1056.7 -223.625L1216.82 -63.7388L187.685 963.805H-132.555L1056.7 -223.625ZM416.652 841.56L539.164 963.892H294.141L416.652 841.56ZM469.88 788.409L630 628.522L965.859 963.892H645.619L469.88 788.409ZM683.228 575.372L843.348 415.486L1392.55 963.892H1072.31L683.228 575.372ZM896.576 362.335L1056.7 202.449L1445.78 590.969V910.742L896.576 362.335ZM1445.78 484.668L1109.92 149.298L1270.04 -10.5884L1445.78 164.895V484.668ZM630 -649.699L790.12 -489.813L-185.783 484.668V164.895L630 -649.699Z" fill="#333333"/>
</svg>
